<svg width="23" height="18" viewBox="0 0 23 18" fill="none" xmlns="http://www.w3.org/2000/svg">
    <path fill-rule="evenodd" clip-rule="evenodd" d="M1.12133 9.09862C1.10133 9.06305 1.08302 9.03013 1.06643 9C1.08302 8.96987 1.10133 8.93695 1.12133 8.90138C1.23999 8.69043 1.41836 8.38674 1.65439 8.02126C2.12709 7.28934 2.82783 6.3147 3.73977 5.34197C5.57276 3.38678 8.19975 1.5 11.5 1.5C14.8002 1.5 17.4272 3.38678 19.2602 5.34197C20.1722 6.3147 20.8729 7.28934 21.3456 8.02126C21.5816 8.38674 21.76 8.69043 21.8787 8.90138C21.8987 8.93695 21.917 8.96987 21.9336 9C21.917 9.03012 21.8987 9.06305 21.8787 9.09862C21.76 9.30957 21.5816 9.61326 21.3456 9.97874C20.8729 10.7107 20.1722 11.6853 19.2602 12.658C17.4272 14.6132 14.8002 16.5 11.5 16.5C8.19975 16.5 5.57276 14.6132 3.73977 12.658C2.82783 11.6853 2.12709 10.7107 1.65439 9.97874C1.41836 9.61326 1.23999 9.30957 1.12133 9.09862ZM22.947 8.776C22.9471 8.77621 22.9472 8.77639 22.5 9C22.9472 9.22361 22.9471 9.22379 22.947 9.224L22.9467 9.22459L22.9459 9.22629L22.943 9.23188L22.933 9.25156C22.9243 9.26841 22.9118 9.29262 22.8953 9.3237C22.8624 9.38587 22.814 9.47557 22.7502 9.58888C22.6228 9.81543 22.434 10.1367 22.1856 10.5213C21.6896 11.2893 20.9528 12.3147 19.9898 13.342C18.0728 15.3868 15.1998 17.5 11.5 17.5C7.80025 17.5 4.92724 15.3868 3.01023 13.342C2.04717 12.3147 1.31041 11.2893 0.814355 10.5213C0.566019 10.1367 0.377193 9.81543 0.249759 9.58888C0.186023 9.47557 0.137588 9.38587 0.104692 9.3237C0.0882423 9.29262 0.0756727 9.26841 0.0670131 9.25156L0.0569579 9.23188L0.0541354 9.22629L0.0532766 9.22459L0.0529854 9.224C0.0528782 9.22379 0.0527864 9.22361 0.5 9C0.0527864 8.77639 0.0528782 8.77621 0.0529854 8.776L0.0532766 8.77542L0.0541354 8.77371L0.0569579 8.76812L0.0670131 8.74844C0.0756727 8.73159 0.0882423 8.70738 0.104692 8.6763C0.137588 8.61413 0.186023 8.52443 0.249759 8.41112C0.377193 8.18457 0.566019 7.86326 0.814355 7.47874C1.31041 6.71066 2.04717 5.6853 3.01023 4.65803C4.92724 2.61322 7.80025 0.5 11.5 0.5C15.1998 0.5 18.0728 2.61322 19.9898 4.65803C20.9528 5.6853 21.6896 6.71066 22.1856 7.47874C22.434 7.86326 22.6228 8.18457 22.7502 8.41112C22.814 8.52443 22.8624 8.61413 22.8953 8.6763C22.9118 8.70738 22.9243 8.73159 22.933 8.74844L22.943 8.76812L22.9459 8.77371L22.9467 8.77542L22.947 8.776ZM22.5 9L22.9472 8.77639C23.0176 8.91716 23.0176 9.08284 22.9472 9.22361L22.5 9ZM0.0527864 8.77639L0.5 9L0.0527864 9.22361C-0.0175955 9.08284 -0.0175955 8.91716 0.0527864 8.77639ZM9 9C9 7.61929 10.1193 6.5 11.5 6.5C12.8807 6.5 14 7.61929 14 9C14 10.3807 12.8807 11.5 11.5 11.5C10.1193 11.5 9 10.3807 9 9ZM11.5 5.5C9.567 5.5 8 7.067 8 9C8 10.933 9.567 12.5 11.5 12.5C13.433 12.5 15 10.933 15 9C15 7.067 13.433 5.5 11.5 5.5Z" fill="white" />
</svg>