<svg width="20" height="12" viewBox="0 0 20 12" fill="none" xmlns="http://www.w3.org/2000/svg">
    <path d="M1.61221 12C1.04865 12 0.591797 11.5431 0.591797 10.9796L0.591797 1.02041C0.591797 0.456853 1.04865 0 1.61221 0C2.17576 0 2.63261 0.456852 2.63261 1.02041L2.63261 10.9796C2.63261 11.5431 2.17576 12 1.61221 12ZM15.5774 11.3141C15.1876 11.6961 14.5647 11.6989 14.1716 11.3203C13.762 10.9259 13.7591 10.2711 14.1652 9.87308L14.5106 9.5346C15.4565 8.60755 14.8002 7 13.4757 7L5.67343 7C5.12115 7 4.67343 6.55228 4.67343 6C4.67343 5.44772 5.12114 5 5.67343 5L13.4806 5C14.8074 5 15.4673 3.39182 14.5229 2.45989L14.1739 2.11545C13.7755 1.72227 13.7766 1.07887 14.1764 0.687079C14.5659 0.305391 15.1891 0.305391 15.5786 0.687079L17.8769 2.9394C19.5914 4.61963 19.5914 7.38037 17.8769 9.0606L15.5774 11.3141Z"
          fill="#F0D95C"/>
</svg>