<svg width="62" height="62" viewBox="0 0 62 62" fill="none" xmlns="http://www.w3.org/2000/svg">
<path d="M45.7324 12.6634C44.8528 12.7526 43.542 12.8504 42.1209 12.8504C40.629 12.8504 39.3202 12.7409 38.2304 12.5201C35.2902 11.9272 32.4295 10.0236 30.9967 8.95215C29.5659 10.0226 26.709 11.9243 23.767 12.5201C22.6761 12.7409 21.3674 12.8504 19.8755 12.8504C18.4582 12.8504 17.1446 12.7496 16.2688 12.6634C15.3001 15.1047 12.9848 22.133 14.3827 30.7626C16.17 41.8092 27.8357 50.8545 30.9996 53.1252C34.1645 50.8545 45.8302 41.8092 47.6156 30.7626C49.0106 22.1339 46.7011 15.1066 45.7324 12.6634ZM28.4179 12.5995C29.307 12.1353 30.1687 11.6204 30.9987 11.0572C31.8302 11.6205 32.6935 12.1355 33.5843 12.5995V23.526H28.4179V12.5995ZM33.5843 48.8937C32.744 49.619 31.8821 50.3187 30.9996 50.992C30.1192 50.318 29.2583 49.6189 28.4179 48.8956V30.3644H33.5843V48.8937ZM46.054 29.509H15.9462C15.7238 27.8091 15.6344 26.0943 15.6789 24.3805H46.3194C46.3646 26.0943 46.2758 27.809 46.054 29.509Z" fill="url(#paint0_linear_2164_616)"/>
<path d="M50.8062 8.06487C50.5361 7.51557 50.1171 7.05328 49.5968 6.73073C49.0766 6.40818 48.4762 6.23838 47.8641 6.24071C47.7065 6.24071 47.5496 6.25169 47.3933 6.27365C47.3739 6.27752 45.2969 6.56912 42.9961 6.56912C41.7096 6.56912 40.6198 6.47999 39.7576 6.30658C36.6324 5.6769 33.175 2.75708 33.1401 2.72802C32.5439 2.21862 31.7855 1.93865 31.0013 1.93848C30.2171 1.9383 29.4585 2.21792 28.8621 2.72705C28.8282 2.75515 25.3659 5.67593 22.2445 6.30561C21.3814 6.47999 20.2916 6.56815 19.0051 6.56815C16.6965 6.56815 14.6273 6.27655 14.6069 6.27268C14.4524 6.25266 14.2968 6.24199 14.141 6.24071C13.5294 6.23862 12.9295 6.40785 12.4091 6.72922C11.8888 7.05059 11.4689 7.51127 11.1969 8.05905C10.6748 9.13243 6.23014 18.757 8.29261 31.5222C10.8608 47.3806 28.4552 59.0386 29.2031 59.5268C29.7377 59.8762 30.3627 60.0621 31.0014 60.0618C31.6401 60.0614 32.2648 59.8748 32.7991 59.5249C33.546 59.0376 51.1453 47.3777 53.7096 31.5231C55.836 18.3801 51.0126 8.47949 50.8062 8.06487ZM52.0104 31.2519C49.5633 46.376 32.5743 57.6271 31.8507 58.0989C31.5977 58.2633 31.3024 58.3509 31.0006 58.3509C30.6988 58.3509 30.4035 58.2633 30.1505 58.0989C29.4269 57.6271 12.4427 46.376 9.99277 31.2519C7.95839 18.6611 12.5464 9.21671 12.7382 8.82049C12.8849 8.52662 13.1201 8.2862 13.4107 8.13308C13.7013 7.97997 14.0326 7.92189 14.358 7.96702C14.3793 7.96993 16.5619 8.27896 19.0041 8.27896C20.4078 8.27896 21.6129 8.17821 22.5865 7.98155C26.1806 7.25693 29.948 4.05424 29.9858 4.02227C30.2691 3.78071 30.6293 3.64802 31.0016 3.64802C31.3739 3.64802 31.734 3.78071 32.0173 4.02227C32.0541 4.05424 35.8158 7.25693 39.4147 7.98155C40.3883 8.17821 41.5905 8.27896 42.9961 8.27896C45.4384 8.27896 47.6181 7.96993 47.6413 7.96702C47.9666 7.92189 48.2979 7.97997 48.5885 8.13308C48.8791 8.2862 49.1143 8.52662 49.2611 8.82049C49.4587 9.21671 54.0457 18.6611 52.0104 31.2519Z" fill="url(#paint1_linear_2164_616)"/>
<path d="M31.0021 7.51682C31.6591 7.51682 32.1917 6.98074 32.1917 6.31944C32.1917 5.65815 31.6591 5.12207 31.0021 5.12207C30.3451 5.12207 29.8125 5.65815 29.8125 6.31944C29.8125 6.98074 30.3451 7.51682 31.0021 7.51682Z" fill="url(#paint2_linear_2164_616)"/>
<path d="M47.2453 11.7111C47.9028 11.7111 48.4359 11.1746 48.4359 10.5128C48.4359 9.85097 47.9028 9.31445 47.2453 9.31445C46.5877 9.31445 46.0547 9.85097 46.0547 10.5128C46.0547 11.1746 46.5877 11.7111 47.2453 11.7111Z" fill="url(#paint3_linear_2164_616)"/>
<path d="M50.217 22.9826C50.874 22.9826 51.4066 22.4461 51.4066 21.7843C51.4066 21.1225 50.874 20.5859 50.217 20.5859C49.56 20.5859 49.0273 21.1225 49.0273 21.7843C49.0273 22.4461 49.56 22.9826 50.217 22.9826Z" fill="url(#paint4_linear_2164_616)"/>
<path d="M48.467 37.0295C49.124 37.0295 49.6566 36.493 49.6566 35.8312C49.6566 35.1693 49.124 34.6328 48.467 34.6328C47.81 34.6328 47.2773 35.1693 47.2773 35.8312C47.2773 36.493 47.81 37.0295 48.467 37.0295Z" fill="url(#paint5_linear_2164_616)"/>
<path d="M41.3156 48.0041C41.9731 48.0041 42.5062 47.4676 42.5062 46.8058C42.5062 46.1439 41.9731 45.6074 41.3156 45.6074C40.658 45.6074 40.125 46.1439 40.125 46.8058C40.125 47.4676 40.658 48.0041 41.3156 48.0041Z" fill="url(#paint6_linear_2164_616)"/>
<path d="M31.0001 56.7561C31.6603 56.7561 32.1956 56.2209 32.1956 55.5607C32.1956 54.9005 31.6603 54.3652 31.0001 54.3652C30.3399 54.3652 29.8047 54.9005 29.8047 55.5607C29.8047 56.2209 30.3399 56.7561 31.0001 56.7561Z" fill="url(#paint7_linear_2164_616)"/>
<path d="M20.6847 48.0041C21.3412 48.0041 21.8734 47.4676 21.8734 46.8058C21.8734 46.1439 21.3412 45.6074 20.6847 45.6074C20.0283 45.6074 19.4961 46.1439 19.4961 46.8058C19.4961 47.4676 20.0283 48.0041 20.6847 48.0041Z" fill="url(#paint8_linear_2164_616)"/>
<path d="M13.5304 37.0295C14.188 37.0295 14.721 36.4934 14.721 35.8321C14.721 35.1708 14.188 34.6348 13.5304 34.6348C12.8729 34.6348 12.3398 35.1708 12.3398 35.8321C12.3398 36.4934 12.8729 37.0295 13.5304 37.0295Z" fill="url(#paint9_linear_2164_616)"/>
<path d="M11.7834 22.9826C12.4404 22.9826 12.973 22.4461 12.973 21.7843C12.973 21.1225 12.4404 20.5859 11.7834 20.5859C11.1264 20.5859 10.5938 21.1225 10.5938 21.7843C10.5938 22.4461 11.1264 22.9826 11.7834 22.9826Z" fill="url(#paint10_linear_2164_616)"/>
<path d="M14.7013 11.7111C15.3584 11.7111 15.891 11.1746 15.891 10.5128C15.891 9.85097 15.3584 9.31445 14.7013 9.31445C14.0443 9.31445 13.5117 9.85097 13.5117 10.5128C13.5117 11.1746 14.0443 11.7111 14.7013 11.7111Z" fill="url(#paint11_linear_2164_616)"/>
<defs>
<linearGradient id="paint0_linear_2164_616" x1="30.9988" y1="8.95215" x2="39.7415" y2="118.192" gradientUnits="userSpaceOnUse">
<stop stop-color="#FFF9B8"/>
<stop offset="1" stop-color="#BCAB4C"/>
</linearGradient>
<linearGradient id="paint1_linear_2164_616" x1="30.9999" y1="1.93848" x2="42.1073" y2="145.74" gradientUnits="userSpaceOnUse">
<stop stop-color="#FFF9B8"/>
<stop offset="1" stop-color="#BCAB4C"/>
</linearGradient>
<linearGradient id="paint2_linear_2164_616" x1="31.0021" y1="5.12207" x2="31.3714" y2="11.0593" gradientUnits="userSpaceOnUse">
<stop stop-color="#FFF9B8"/>
<stop offset="1" stop-color="#BCAB4C"/>
</linearGradient>
<linearGradient id="paint3_linear_2164_616" x1="47.2453" y1="9.31445" x2="47.6149" y2="15.2564" gradientUnits="userSpaceOnUse">
<stop stop-color="#FFF9B8"/>
<stop offset="1" stop-color="#BCAB4C"/>
</linearGradient>
<linearGradient id="paint4_linear_2164_616" x1="50.217" y1="20.5859" x2="50.5868" y2="26.5279" gradientUnits="userSpaceOnUse">
<stop stop-color="#FFF9B8"/>
<stop offset="1" stop-color="#BCAB4C"/>
</linearGradient>
<linearGradient id="paint5_linear_2164_616" x1="48.467" y1="34.6328" x2="48.8368" y2="40.5748" gradientUnits="userSpaceOnUse">
<stop stop-color="#FFF9B8"/>
<stop offset="1" stop-color="#BCAB4C"/>
</linearGradient>
<linearGradient id="paint6_linear_2164_616" x1="41.3156" y1="45.6074" x2="41.6852" y2="51.5494" gradientUnits="userSpaceOnUse">
<stop stop-color="#FFF9B8"/>
<stop offset="1" stop-color="#BCAB4C"/>
</linearGradient>
<linearGradient id="paint7_linear_2164_616" x1="31.0001" y1="54.3652" x2="31.3664" y2="60.2931" gradientUnits="userSpaceOnUse">
<stop stop-color="#FFF9B8"/>
<stop offset="1" stop-color="#BCAB4C"/>
</linearGradient>
<linearGradient id="paint8_linear_2164_616" x1="20.6847" y1="45.6074" x2="21.0549" y2="51.5493" gradientUnits="userSpaceOnUse">
<stop stop-color="#FFF9B8"/>
<stop offset="1" stop-color="#BCAB4C"/>
</linearGradient>
<linearGradient id="paint9_linear_2164_616" x1="13.5304" y1="34.6348" x2="13.8994" y2="40.572" gradientUnits="userSpaceOnUse">
<stop stop-color="#FFF9B8"/>
<stop offset="1" stop-color="#BCAB4C"/>
</linearGradient>
<linearGradient id="paint10_linear_2164_616" x1="11.7834" y1="20.5859" x2="12.1532" y2="26.5279" gradientUnits="userSpaceOnUse">
<stop stop-color="#FFF9B8"/>
<stop offset="1" stop-color="#BCAB4C"/>
</linearGradient>
<linearGradient id="paint11_linear_2164_616" x1="14.7013" y1="9.31445" x2="15.0712" y2="15.2564" gradientUnits="userSpaceOnUse">
<stop stop-color="#FFF9B8"/>
<stop offset="1" stop-color="#BCAB4C"/>
</linearGradient>
</defs>
</svg>
