<svg width="61" height="61" viewBox="0 0 61 61" fill="none" xmlns="http://www.w3.org/2000/svg">
<path d="M44.5072 2.19289C42.6467 2.17299 41.182 2.74355 40.6277 3.95021C37.9139 9.86018 34.8204 14.3321 31.2044 17.923C31.5704 18.0457 31.9264 18.1963 32.2692 18.3737C33.8165 19.1729 35.2797 20.4921 36.4763 22.0484C37.673 23.6047 38.603 25.3979 38.9521 27.231C39.041 27.6966 39.0903 28.1704 39.09 28.642C43.733 25.7397 49.2239 23.7307 55.874 22.5286C57.6504 22.2073 58.6919 19.1174 58.4242 15.5403L54.2357 15.4212L57.8766 12.465C57.3824 10.7366 56.5645 9.03918 55.3562 7.61355C53.5062 5.4316 51.0159 3.87539 48.5985 3.00447L45.5053 4.86235L45.8403 2.30083C45.3786 2.2353 44.9337 2.19717 44.5074 2.19277L44.5072 2.19289ZM29.4211 19.8443C29.2944 19.8505 29.1756 19.8712 29.0636 19.9003C27.6368 21.1219 26.1316 22.2351 24.5437 23.2696C24.644 23.3089 24.7427 23.349 24.8415 23.3925C26.5242 24.1302 28.1105 25.4352 29.4249 27.0412C31.0161 28.9858 32.239 31.4423 32.4777 33.9216C33.7089 32.6864 35.0083 31.5456 36.3908 30.4999C36.8788 29.7189 36.9782 28.7761 36.7631 27.6479C36.5029 26.2825 35.7335 24.7373 34.7079 23.4035C33.6821 22.0698 32.399 20.9466 31.2453 20.3505C30.5243 19.9781 29.9165 19.8203 29.4209 19.8442L29.4211 19.8443ZM22.0454 25.0009C21.8804 25.0072 21.7249 25.0331 21.5727 25.0679C17.1645 27.5415 12.1501 29.5934 6.40464 31.7398C6.47303 31.7448 6.54046 31.7508 6.60957 31.7583C7.87567 31.8961 9.12057 32.355 10.3214 33.054L14.8114 31.0957L12.9275 34.994C13.6417 35.6411 14.3337 36.3613 14.9939 37.1385C17.4672 40.0496 19.5169 43.7943 20.6047 47.6338C20.6049 47.635 20.6043 47.6365 20.6047 47.6376C20.9597 48.8896 21.2135 50.1296 21.3567 51.331C23.8574 45.5601 26.6441 40.6965 29.9758 36.6767C30.8455 34.1176 29.7153 30.9093 27.7046 28.4524C26.5799 27.0778 25.2055 25.9841 23.9481 25.4328C23.2409 25.1226 22.6054 24.9792 22.0454 25.0009ZM38.9188 31.5351C38.0479 32.1367 37.1958 32.7872 36.3648 33.4785C41.0304 34.5817 43.6268 37.7344 45.9741 40.8838C47.2208 42.5565 48.4282 44.2328 49.9206 45.7314C52.8027 46.8212 55.0639 46.4915 57.5344 43.9517C46.5538 40.6419 46.0838 32.9181 38.9187 31.5348L38.9188 31.5351ZM5.79024 33.9439C4.49482 33.9707 3.61473 34.6295 3.00902 35.9209C2.31681 37.3967 2.16145 39.7894 3.0612 42.7194C3.74626 44.9509 5.0294 47.2131 6.48649 48.87C7.94358 50.5269 9.57224 51.5002 10.701 51.5395H10.7048C11.1476 51.555 11.4855 51.4582 11.7547 51.2119L11.7324 51.1895L11.9817 50.94C12.0762 50.8008 12.1628 50.6364 12.2423 50.4411C12.5771 49.6191 12.6331 48.2308 12.0226 46.5095C11.2023 44.1961 9.74463 42.7051 8.04628 42.3658L5.30986 41.822L7.67039 40.3328L12.2537 37.4512C10.27 35.4471 8.13743 34.1621 6.37105 33.97C6.16851 33.948 5.97514 33.9402 5.79012 33.944L5.79024 33.9439ZM33.9372 34.5879L31.0147 37.6111C42.9814 39.7411 37.621 54.4106 49.995 58.6023L47.0427 51.7779C50.9464 53.702 55.0716 54.4732 58.6851 53.2112C42.5094 48.2135 47.2095 38.0823 33.9372 34.5879ZM13.7464 39.1415L10.6526 41.0886C12.2229 42.1013 13.4179 43.777 14.1226 45.7649C14.4288 46.6279 14.615 47.4573 14.6885 48.2406L17.4811 45.4558C16.5185 43.1695 15.2133 40.9802 13.7467 39.1414L13.7464 39.1415ZM18.3186 47.7642L13.3072 52.7681L13.2886 52.7495C12.7816 53.2191 12.162 53.5555 11.4793 53.6952C14.2515 55.4672 16.7982 56.0001 18.2479 54.8345C18.7555 54.4263 19.087 53.8384 19.2571 53.1181C19.2082 51.6069 18.9471 49.9472 18.4639 48.2445C18.4184 48.0842 18.3679 47.9245 18.3186 47.7642Z" fill="url(#paint0_linear_2164_633)"/>
<defs>
<linearGradient id="paint0_linear_2164_633" x1="30.5613" y1="2.19238" x2="39.2287" y2="142.051" gradientUnits="userSpaceOnUse">
<stop stop-color="#FFF9B8"/>
<stop offset="1" stop-color="#BCAB4C"/>
</linearGradient>
</defs>
</svg>
