<svg width="70" height="70" viewBox="0 0 70 70" fill="none" xmlns="http://www.w3.org/2000/svg">
<path d="M3.62785 2.55496C2.92512 4.43307 3.89172 6.98109 6.55637 6.98109C6.70813 6.98109 6.85373 6.97152 6.99455 6.9558C5.05178 8.6235 5.7258 12.63 9.06694 12.63C9.5058 12.63 9.8975 12.5599 10.2444 12.4362C9.27188 14.3292 10.1875 17.2118 13.0211 17.2118C13.7156 17.2118 14.2942 17.0377 14.7588 16.7483C14.0164 18.6313 14.9751 21.2286 17.6655 21.2286C18.2103 21.2286 18.6835 21.1212 19.0866 20.9357C18.8107 22.5175 19.598 24.3075 21.4621 24.675L13.8783 35.1061L37.0905 67.0333L60.3019 35.1063L49.898 20.796C51.7943 20.4761 52.616 18.7131 52.379 17.1264C52.6265 17.1815 52.8925 17.2119 53.1791 17.2119C56.0126 17.2119 56.9279 14.3293 55.9555 12.4363C56.3023 12.56 56.6941 12.6302 57.1329 12.6302C60.4737 12.6302 61.1476 8.62363 59.2051 6.9558C59.3459 6.97152 59.4915 6.98096 59.6433 6.98096C62.3079 6.98096 63.2746 4.43293 62.5718 2.55469H56.7148C56.2438 3.81346 56.5238 5.37205 57.5611 6.26387C57.4189 6.24789 57.2758 6.2399 57.1327 6.23994C54.3214 6.23994 53.3832 9.12197 54.3482 11.0148C54.0031 10.8913 53.6136 10.8215 53.1787 10.8215C50.8545 10.8215 49.8127 12.7914 50.066 14.5437C49.8042 14.4858 49.5368 14.457 49.2687 14.4578C47.8828 14.4578 46.9527 15.1587 46.481 16.096L40.792 8.27117L37.0902 3.17922L36.0569 4.60027L24.9282 19.9073C24.4438 19.0128 23.5286 18.3534 22.1846 18.3534C21.6414 18.3534 21.1687 18.4616 20.7654 18.6489C21.0676 16.8753 20.0288 14.8386 17.6656 14.8386C16.9747 14.8386 16.3975 15.0136 15.9334 15.3041C16.6689 13.4212 15.6914 10.8219 13.0213 10.8219C12.5859 10.8219 12.1963 10.8917 11.8509 11.0155C12.8162 9.12252 11.8783 6.24035 9.06694 6.24035C8.92378 6.24031 8.78073 6.2483 8.63846 6.26428C9.67588 5.37246 9.95588 3.81387 9.48475 2.5551L3.62785 2.55496ZM40.7921 12.6161L46.0394 19.8332L44.5701 25.3173C44.1925 25.2456 43.8091 25.2092 43.4248 25.2086C42.8984 25.2086 42.3867 25.2775 41.8931 25.403L39.0906 14.9563L40.7921 12.6161ZM37.1584 17.6143L39.5482 26.5229C38.9232 26.9791 38.3595 27.535 37.8769 28.1665C37.4659 28.7041 37.1078 29.2971 36.8072 29.9338L30.7032 26.4929L37.1584 17.6143ZM47.9722 22.4924L52.404 28.5883L50.0377 29.9243C49.738 29.291 49.3815 28.7011 48.9727 28.1661C48.4026 27.4205 47.7203 26.7792 46.9561 26.2848L47.9723 22.4922L47.9722 22.4924ZM43.4246 27.7634C44.7431 27.7634 45.9731 28.4498 46.9424 29.7181C47.912 30.9864 48.557 32.82 48.557 34.8719C48.557 36.924 47.9117 38.7574 46.9424 40.0262C45.9725 41.2946 44.7431 41.9807 43.4246 41.9807C42.1061 41.9807 40.8765 41.2946 39.9069 40.0262C38.9372 38.7574 38.2918 36.924 38.2918 34.8719C38.2918 32.8201 38.9371 30.9863 39.9069 29.718C40.8765 28.4492 42.1061 27.7632 43.4246 27.7632V27.7634ZM29.1908 28.5734L35.988 32.4056C35.8202 33.217 35.7359 34.0434 35.7364 34.872C35.7364 35.8892 35.8612 36.8712 36.0927 37.7971L29.2193 41.6784L24.4414 35.1063L29.191 28.5736L29.1908 28.5734ZM53.9164 30.6684L57.1427 35.1063L53.8984 39.5691L50.7563 37.7979C50.9879 36.8718 51.1126 35.8896 51.1126 34.8721C51.1126 34.0174 51.0241 33.1878 50.8591 32.3948L53.9164 30.6684ZM37.009 40.2141C37.2646 40.6989 37.5542 41.1559 37.8769 41.5779C38.4077 42.2724 39.0362 42.8761 39.7372 43.3553L37.2333 52.7014L30.7317 43.7586L37.009 40.2141ZM49.84 40.2146L52.3857 41.6498L47.9049 47.8131L46.7684 43.5765C47.6089 43.0684 48.3562 42.3843 48.9723 41.578C49.2989 41.1485 49.5892 40.6925 49.84 40.2147V40.2146ZM42.105 44.3913C42.533 44.4846 42.9735 44.5362 43.4248 44.5362C43.7424 44.5362 44.0542 44.5089 44.3607 44.4621L45.9727 50.4706L40.792 57.5964L39.1664 55.3603L42.105 44.3913Z" fill="url(#paint0_linear_2164_609)"/>
<defs>
<linearGradient id="paint0_linear_2164_609" x1="33.0998" y1="2.55469" x2="43.8184" y2="162.313" gradientUnits="userSpaceOnUse">
<stop stop-color="#FFF9B8"/>
<stop offset="1" stop-color="#BCAB4C"/>
</linearGradient>
</defs>
</svg>
