<svg width="64" height="64" viewBox="0 0 64 64" fill="none" xmlns="http://www.w3.org/2000/svg">
<path d="M26 7.08008L24 15.0801L11.679 16.8403L32 21.9203L52.321 16.8403L40 15.0801L38 7.08008L34.5915 9.35258L33.0913 15.353H30.9088L29.4085 9.35245L26 7.08008ZM8.67237 18.4076L2 25.0802L8 33.0802L11.2212 29.859L14.5486 19.8768L8.67237 18.4076ZM55.3276 18.4076L49.4514 19.8767L52.7789 29.8588L56 33.0801L62 25.0801L55.3276 18.4076ZM16.738 20.4241L14.2226 27.9702L15.9489 34.876L30.875 43.1682V23.9585L16.738 20.4241ZM47.262 20.4241L33.125 23.9585V43.1682L48.051 34.876L49.7772 27.9702L47.262 20.4241ZM18 38.5891V45.6283L30.875 49.4567V45.7418L18 38.5891ZM46 38.5891L33.125 45.742V49.4567L46 45.6283V38.5891ZM18 48.0316V55.0801L30.875 56.9193V51.8597L18 48.0316ZM46 48.0316L33.125 51.8597V56.9195L46 55.0802V48.0316Z" fill="url(#paint0_linear_2164_604)"/>
<defs>
<linearGradient id="paint0_linear_2164_604" x1="32" y1="7.08008" x2="38.3503" y2="130.796" gradientUnits="userSpaceOnUse">
<stop stop-color="#FFF9B8"/>
<stop offset="1" stop-color="#BCAB4C"/>
</linearGradient>
</defs>
</svg>
