<svg width="66" height="66" viewBox="0 0 66 66" fill="none" xmlns="http://www.w3.org/2000/svg">
<path d="M5.36727 19.2178C4.33602 20.249 3.74125 20.7893 3.34499 21.5817C3.30956 21.6532 3.27679 21.726 3.24676 21.7999C3.57212 22.2009 4.28665 22.7426 5.29805 23.259C5.31377 22.9252 5.34793 22.7648 5.42051 22.6195C5.54 22.3805 5.97648 21.8896 7.00773 20.8584L5.36727 19.2178ZM60.6327 19.2178L58.9923 20.8584C60.0235 21.8896 60.46 22.3805 60.5794 22.6195C60.6521 22.7648 60.6862 22.9252 60.702 23.2589C61.7134 22.7426 62.428 22.2009 62.7532 21.7999C62.7232 21.726 62.6904 21.6532 62.655 21.5817C62.2588 20.7893 61.664 20.249 60.6327 19.2178ZM3.22266 24.7806V29.9961C3.55395 30.4895 4.3297 31.1266 5.49063 31.717C5.47903 30.7085 5.48406 29.574 5.54477 28.4815C5.5926 27.6189 5.67033 26.7856 5.81715 26.0236C5.69782 25.9774 5.57888 25.9303 5.46034 25.8821C4.63457 25.5462 3.89232 25.1837 3.22266 24.7806ZM62.7773 24.7806C62.1077 25.1837 61.3654 25.5463 60.5395 25.8821C60.4221 25.9298 60.3032 25.977 60.1828 26.0236C60.3297 26.7856 60.4074 27.6189 60.4552 28.4814C60.5159 29.574 60.521 30.7085 60.5094 31.7172C61.6703 31.1268 62.4461 30.4895 62.7773 29.996V24.7806ZM25.6592 25.3233L21.949 40.395L31.8398 46.7827V39.9459L35.9648 37.8834V33.13L31.8398 31.0675V25.323L25.6592 25.3233ZM34.1602 25.3233V29.6335L38.2852 31.696V39.3176L34.1602 41.3801V46.7828L44.0507 40.3949L40.3408 25.3232L34.1602 25.3233ZM8.04478 26.7825C7.96073 27.3213 7.89809 27.9517 7.86148 28.6104C7.78413 30.0039 7.80489 31.4703 7.8308 32.6761C9.12205 33.1204 10.5829 33.5193 12.1111 33.8589C12.5008 33.9456 12.8946 34.0272 13.2897 34.1059C13.3112 32.6016 13.3714 30.9856 13.5422 29.4489C13.5915 29.0059 13.6464 28.5685 13.7116 28.1403C13.2716 28.0563 12.8323 27.9683 12.3938 27.8764C10.8963 27.5611 9.42098 27.1984 8.04478 26.7825ZM57.9552 26.7825C56.579 27.1982 55.1037 27.5611 53.6062 27.8764C53.1677 27.9683 52.7284 28.0563 52.2884 28.1403C52.3536 28.5684 52.4085 29.0059 52.4578 29.4489C52.6286 30.9856 52.6888 32.6015 52.7104 34.1059C53.1054 34.0272 53.4993 33.9456 53.8889 33.8589C55.4171 33.5193 56.878 33.1204 58.1692 32.6761C58.1951 31.4703 58.2159 30.0039 58.1385 28.6104C58.1019 27.9517 58.0393 27.3213 57.9552 26.7825ZM16.0143 28.5472C15.9467 28.9314 15.8914 29.3176 15.8484 29.7052C15.6769 31.2482 15.6236 32.9407 15.6064 34.5227C17.3445 34.8022 19.0924 35.0173 20.8465 35.1675L22.2876 29.3128C20.56 29.18 18.3703 28.9287 16.0143 28.5471V28.5472ZM49.9857 28.5472C47.6297 28.9288 45.44 29.18 43.7124 29.3128L45.1535 35.1675C46.9076 35.0173 48.6555 34.8022 50.3936 34.5227C50.3764 32.9407 50.3231 31.2482 50.1516 29.7052C50.1071 29.3058 50.0511 28.9186 49.9857 28.5471V28.5472ZM3.49155 33.2858L3.67808 36.4853C8.1501 38.2702 13.6516 39.5378 19.5855 40.2897L20.2811 37.4641C17.5933 37.2161 14.5179 36.7705 11.6079 36.1238C9.23858 35.5974 6.98827 34.9409 5.1364 34.1178C4.54988 33.8571 3.99713 33.5841 3.49155 33.286V33.2858ZM62.5084 33.2858C62.0029 33.5841 61.4501 33.8571 60.8636 34.1178C59.0117 34.9409 56.7613 35.5974 54.3921 36.1238C51.4821 36.7705 48.4067 37.2161 45.7189 37.4641L46.4145 40.2897C52.3484 39.5377 57.8499 38.2702 62.3219 36.4852L62.5084 33.2858Z" fill="url(#paint0_linear_2164_600)"/>
<defs>
<linearGradient id="paint0_linear_2164_600" x1="33" y1="19.2178" x2="34.9606" y2="87.7668" gradientUnits="userSpaceOnUse">
<stop stop-color="#FFF9B8"/>
<stop offset="1" stop-color="#BCAB4C"/>
</linearGradient>
</defs>
</svg>
