<svg width="56" height="56" viewBox="0 0 56 56" fill="none" xmlns="http://www.w3.org/2000/svg">
<path d="M39.7901 2.5752C38.7202 2.58143 37.9764 2.90846 37.5212 3.69301C35.6061 6.99395 33.3177 10.4354 32.2109 14.3292C32.5211 14.42 32.8272 14.5246 33.1267 14.6412C33.9309 14.9544 34.6995 15.3502 35.3734 15.8288C38.385 13.0352 41.7352 10.884 44.9383 8.66891C46.1804 7.80988 46.2806 7.18316 46.0521 6.39063C45.8235 5.5981 44.9727 4.60071 43.8071 3.85576C42.6414 3.11091 41.1964 2.61654 40.0085 2.57826C39.9342 2.57592 39.8614 2.57483 39.7901 2.5752ZM32.2435 2.65679C31.1475 2.63688 30.2975 3.35602 29.6268 4.87054C28.649 7.07926 28.5098 10.7151 29.4686 13.9689C29.4857 13.968 29.5025 13.9664 29.5197 13.9656C29.7373 13.9561 29.9561 13.9577 30.1759 13.9689C31.208 10.1602 33.2347 6.89015 34.9899 3.95802C33.8622 3.02877 32.9255 2.66937 32.2437 2.6569L32.2435 2.65679ZM21.6029 9.0234L20.4545 10.7154C22.0754 11.8136 23.6325 12.8729 24.809 14.147C25.2373 14.6107 25.6151 15.1009 25.9367 15.6352C26.3379 15.1313 26.8504 14.7273 27.434 14.4549C27.4785 14.4343 27.5237 14.416 27.5683 14.3969C27.1939 13.8019 26.7695 13.2574 26.3094 12.7593C24.9131 11.247 23.2206 10.1193 21.6029 9.0234ZM46.0778 10.3654C42.878 12.5779 39.6711 14.6477 36.8522 17.232C36.9001 17.295 36.9449 17.3597 36.9898 17.4245C39.2517 16.6862 42.4023 15.7474 45.0744 15.3015C46.3304 15.092 46.7872 14.5849 46.9965 13.8547C47.2059 13.1245 47.0454 12.0271 46.4151 10.9034C46.311 10.719 46.1985 10.5394 46.0779 10.3653L46.0778 10.3654ZM21.5845 15.6012C19.9494 15.6231 18.3326 16.0715 16.7767 16.9975L17.8227 18.7508C20.1914 17.3409 22.4849 17.205 24.9574 18.2517C25.0145 17.6401 25.1504 17.0856 25.3652 16.5881C25.4035 16.4999 25.445 16.4146 25.488 16.3306C24.1897 15.8363 22.8816 15.5839 21.5846 15.6011L21.5845 15.6012ZM29.8752 16.0315C29.2651 16.0224 28.7161 16.1126 28.2972 16.3078C27.8185 16.5307 27.4806 16.8452 27.242 17.3982C27.1453 17.6221 27.07 17.8948 27.0249 18.2179C27.0747 18.2171 27.1244 18.2146 27.1741 18.2143C28.9299 18.2051 30.7383 18.5173 32.5678 19.2194C33.4115 19.5432 34.2152 20.0346 34.9791 20.6614C35.331 20.394 35.5249 20.1452 35.6106 19.9467C35.7429 19.6406 35.7303 19.3797 35.5412 18.982C35.1628 18.1863 33.878 17.1275 32.3851 16.5462C31.6387 16.2555 30.856 16.0842 30.1404 16.0416C30.0509 16.0361 29.9625 16.0327 29.8753 16.0315H29.8752ZM27.1674 20.2377C24.6537 20.2459 22.2759 21.0456 20.058 22.4014C16.5093 24.5708 13.4337 28.2118 11.2704 32.2486C9.10726 36.2854 7.86519 40.7154 7.8594 44.3379C7.8536 47.9538 8.98158 50.6018 11.4482 51.7515C11.4529 51.7537 11.4572 51.7562 11.4619 51.7584H11.4654C14.1858 53.0173 18.6421 53.8734 23.3224 53.956C28.0026 54.0387 32.9244 53.3591 36.6524 51.748C39.0542 50.71 40.4307 48.6361 41.0821 45.8247C41.7333 43.0132 41.5762 39.5185 40.8223 36.056C40.0683 32.5935 38.7223 29.1588 37.0931 26.4447C35.464 23.7305 33.526 21.7783 31.8363 21.1298C30.2324 20.5143 28.6755 20.2329 27.1674 20.2377Z" fill="url(#paint0_linear_2199_621)"/>
<defs>
<linearGradient id="paint0_linear_2199_621" x1="27.4713" y1="2.5752" x2="37.7579" y2="129.638" gradientUnits="userSpaceOnUse">
<stop stop-color="#FFF9B8"/>
<stop offset="1" stop-color="#BCAB4C"/>
</linearGradient>
</defs>
</svg>
