<svg width="65" height="65" viewBox="0 0 65 65" fill="none" xmlns="http://www.w3.org/2000/svg">
<path d="M13.6225 3.30078C13.0962 3.30078 12.5307 6.21766 11.945 8.75139L16.0312 21.5698L11.0734 12.7179C10.7012 14.5387 10.3861 16.3513 10.1845 18.1478L15.6658 25.5423L9.97351 20.8674C9.91829 22.2741 9.95447 23.6675 10.1104 25.0438L15.8886 29.6899L10.6975 28.0033C11.0223 29.1491 11.4516 30.2983 11.9432 31.4373L17.1253 34.8578L13.3084 34.3104C15.0642 37.7322 17.0946 40.9396 18.2211 43.5152C18.5468 44.1665 19.2397 45.6422 19.6082 47.0912C20.1021 49.0838 19.0333 51.6538 16.9078 51.9563C18.4674 50.142 18.5893 48.972 18.3068 47.8259C16.6257 47.8015 15.8805 49.8465 15.8805 49.8465C15.8805 49.8465 14.2902 52.8265 17.8758 57.3836C21.4615 61.9407 26.404 61.6967 26.404 61.6967C26.404 61.6967 26.1193 54.7087 26.2725 51.5455C26.4274 48.3507 27.3331 42.6895 27.3331 42.6895C27.3331 42.6895 24.7943 42.7013 21.9448 40.6837C18.3689 38.152 19.7219 36.5423 18.8138 34.1993C16.9835 29.4765 18.2196 22.1206 18.2196 22.1206C18.2196 22.1206 16.8412 16.7136 15.9535 12.8756C15.2176 9.6949 14.0158 3.30078 13.6225 3.30078ZM51.3784 3.30078C50.985 3.30078 49.7832 9.6949 49.0475 12.8756C48.1597 16.7136 46.7812 22.1206 46.7812 22.1206C46.7812 22.1206 48.0174 29.4765 46.187 34.1993C45.2791 36.5423 46.632 38.152 43.0561 40.6838C40.2066 42.7013 37.6678 42.6896 37.6678 42.6896C37.6678 42.6896 38.5735 48.3507 38.7284 51.5455C38.8816 54.7087 38.5969 61.6969 38.5969 61.6969C38.5969 61.6969 43.5394 61.9407 47.1251 57.3836C50.7107 52.8265 49.1204 49.8464 49.1204 49.8464C49.1204 49.8464 48.3752 47.8015 46.6942 47.8259C46.4116 48.972 46.5335 50.1423 48.0932 51.9566C45.9676 51.6541 44.8988 49.0838 45.3927 47.0912C45.7612 45.6422 46.4541 44.1666 46.7798 43.5152C47.9063 40.9396 49.9368 37.7322 51.6927 34.3104L47.8756 34.8578L53.0577 31.4373C53.5493 30.2983 53.9786 29.1491 54.3034 28.0033L49.1123 29.6899L54.8905 25.0438C55.0464 23.6676 55.0826 22.2741 55.0274 20.8674L49.3351 25.5423L54.8164 18.1478C54.6148 16.3514 54.2997 14.5387 53.9275 12.7179L48.9697 21.5698L53.0559 8.75164C52.4702 6.21791 51.9047 3.30078 51.3784 3.30078ZM32.5002 3.35956C30.0388 3.35956 24.3625 9.12349 21.2847 12.9735C20.3938 14.088 19.2794 16.7596 19.2794 16.7596L20.4466 21.4935C20.4466 21.4935 20.3001 22.5666 20.1161 25.3643C19.9775 27.4706 19.9822 29.5288 19.9822 29.5288L26.6698 27.3842C27.1779 24.522 28.1305 20.7716 29.24 17.5821C30.1296 15.0252 32.5002 10.1458 32.5002 10.1458C32.5002 10.1458 34.9377 14.7993 35.8101 17.2688C36.9673 20.5443 37.8169 24.5663 38.3309 27.3842L45.0185 29.5288C45.0185 29.5288 45.0231 27.4706 44.8846 25.3643C44.7005 22.5666 44.554 21.4935 44.554 21.4935L45.7212 16.7595C45.7212 16.7595 44.9481 14.3003 44.1933 13.2874C41.1343 9.18252 34.9616 3.35956 32.5002 3.35956ZM32.5005 13.1464C32.5005 13.1464 31.1396 16.7239 30.5492 19.5825C30.0034 22.2254 29.0387 28.042 29.0387 28.042C29.0387 28.042 30.56 29.5563 29.76 30.3597C28.9601 31.1631 27.5964 29.6354 27.5964 29.6354L20.4318 31.8099L20.8554 33.4878L27.5964 36.0084C27.5964 36.0084 28.9492 34.4699 29.76 35.2843C30.571 36.0986 29.0387 38.326 29.0387 38.326C29.0387 38.326 29.5311 40.3649 29.7998 41.3786C30.2378 43.0318 31.187 46.3181 31.187 46.3181L32.5002 46.6821L33.8137 46.3181C33.8137 46.3181 34.6769 43.2454 35.0892 41.7038C35.3895 40.5803 35.962 38.326 35.962 38.326C35.962 38.326 34.4296 36.0986 35.2406 35.2842C36.0516 34.4698 37.4043 36.0084 37.4043 36.0084L44.1452 33.4878L44.5689 31.8099L37.4043 29.6354C37.4043 29.6354 36.0405 31.1631 35.2406 30.3597C34.4407 29.5563 35.962 28.042 35.962 28.042C35.962 28.042 35.0038 22.6699 34.4516 19.6873C33.9122 16.7732 32.5005 13.1464 32.5005 13.1464ZM32.5005 30.4588C33.1378 30.4588 33.6542 31.4963 33.6542 32.7762C33.6542 34.0561 33.1378 35.0939 32.5005 35.0939C31.8631 35.0939 31.3465 34.0561 31.3465 32.7762C31.3465 31.4963 31.8631 30.4588 32.5005 30.4588Z" fill="url(#paint0_linear_2164_602)"/>
<defs>
<linearGradient id="paint0_linear_2164_602" x1="32.5005" y1="3.30078" x2="44.0556" y2="147.721" gradientUnits="userSpaceOnUse">
<stop stop-color="#FFF9B8"/>
<stop offset="1" stop-color="#BCAB4C"/>
</linearGradient>
</defs>
</svg>
