<svg width="58" height="58" viewBox="0 0 58 58" fill="none" xmlns="http://www.w3.org/2000/svg">
<path d="M46.3583 3.36242C46.7919 4.76858 47.4766 5.95452 48.5396 6.90472C49.7229 7.96277 51.4252 8.76559 53.9224 9.15166C52.9434 6.13588 50.6141 4.22324 46.3584 3.3623L46.3583 3.36242ZM44.7293 4.85886C44.4835 5.73906 44.2848 6.77218 44.0453 7.66994C44.2837 9.14486 45.2615 10.3314 46.4208 11.1497C47.021 11.5734 47.659 11.8881 48.2038 12.0759C48.6985 12.2465 49.1019 12.2835 49.2555 12.2796C50.4023 11.8169 51.4956 11.373 52.3504 10.9244C50.1715 10.4254 48.4694 9.57714 47.1805 8.42462C46.0529 7.41641 45.266 6.19705 44.7294 4.85852L44.7293 4.85886ZM40.676 7.58736C40.8374 9.79113 41.4753 11.6032 42.7354 12.9308C44.1535 14.425 46.4567 15.429 50.173 15.5516C50.0869 15.2267 49.9668 14.8844 49.8071 14.5253C49.7719 14.447 49.7355 14.3693 49.6978 14.2922L49.6083 14.3047C48.9374 14.3976 48.2777 14.2583 47.5392 14.0034C46.8006 13.7488 46.0084 13.3539 45.2453 12.8154C43.746 11.7574 42.3264 10.1023 42.0092 7.88698C41.5473 7.74697 41.0995 7.64604 40.6758 7.58736H40.676ZM38.638 7.65193C37.9821 7.82128 37.495 8.14753 37.1932 8.59239C36.6583 9.38026 36.6484 10.6194 37.3311 12.1551C38.0135 13.6905 39.3747 15.3957 41.2336 16.78C43.0926 18.1643 45.0776 18.9507 46.6866 19.1215C48.2956 19.2926 49.4098 18.8761 49.9447 18.0882C50.0483 17.9344 50.1311 17.7675 50.191 17.592C46.071 17.4665 43.1378 16.3171 41.2562 14.3346C39.5756 12.564 38.8158 10.2261 38.6378 7.65215L38.638 7.65193ZM25.909 12.2308C25.6169 12.2345 25.2791 12.2678 24.933 12.3377C24.2409 12.4775 23.5068 12.7455 22.9648 13.0459C22.4227 13.3461 22.1324 13.7338 22.1416 13.7079L22.1407 13.7105L22.1395 13.7135C20.4905 18.3133 19.5635 22.9067 19.1462 27.2759C19.2076 27.2484 19.268 27.2204 19.3295 27.1932C21.1015 26.4068 22.9592 25.6738 24.8684 25.0423C25.434 20.8569 26.2409 16.775 26.87 12.4964C26.8647 12.471 26.8612 12.4318 26.8515 12.4207C26.8354 12.4031 26.771 12.3482 26.6088 12.3006C26.4465 12.2531 26.2007 12.2272 25.9087 12.231L25.909 12.2308ZM29.045 13.5482C28.9553 13.5479 28.8649 13.5488 28.7746 13.5493C28.2043 17.2944 27.5281 20.8311 27.0118 24.3845C30.1854 23.4882 33.4645 22.913 36.7039 22.877C38.1906 22.8605 39.6687 22.9593 41.1246 23.1904C41.0987 21.8746 41.039 20.4999 40.9451 19.0652C40.6532 18.875 40.3673 18.6758 40.0878 18.4678C38.4135 17.2211 37.0731 15.7498 36.1558 14.2212C34.0548 13.9773 31.8593 13.6019 29.47 13.5532C29.329 13.5503 29.1874 13.5487 29.0452 13.5482H29.045ZM19.291 15.8576C17.3915 16.8014 15.3678 18.0994 13.1951 19.8649C7.70772 24.3234 5.57237 30.0133 5.44096 35.3032C6.26995 34.6756 7.26683 33.9634 8.42309 33.1958C10.7565 31.6467 13.7002 29.892 17.0137 28.273C17.3167 24.2869 18.023 20.0975 19.2908 15.8576H19.291ZM43.0562 20.2209C43.1181 21.3866 43.1593 22.5183 43.1758 23.6108C43.657 23.7322 44.1338 23.87 44.6055 24.024C44.4291 22.8137 44.2679 21.6817 44.1673 20.6599C43.7905 20.5305 43.4197 20.3841 43.0562 20.221V20.2209ZM37.2943 24.9376C37.0909 24.9357 36.8872 24.9365 36.683 24.9391C31.1275 25.0153 25.3171 26.7668 20.1564 29.0569C16.0278 30.889 12.3321 33.0481 9.55081 34.8946C8.16017 35.8178 6.99745 36.6633 6.12745 37.3455C5.28327 38.0077 4.70599 38.5429 4.53947 38.7295C4.05938 39.4284 3.70957 41.759 4.03967 43.4762C4.20654 44.3447 4.53471 45.051 4.799 45.3295C5.03179 45.5744 5.06294 45.6295 5.39554 45.4768C22.3149 28.0983 39.3145 30.2605 46.972 30.2318C46.9725 30.2126 46.9618 30.2262 46.9727 30.1774C47.0222 29.9563 47.0187 29.4887 46.9221 28.9869C46.8253 28.4848 46.6497 27.9409 46.4548 27.5032C46.2926 27.1392 46.1146 26.8861 46.0319 26.7799C43.3071 25.5197 40.3454 24.9648 37.2945 24.9374L37.2943 24.9376ZM40.6669 32.1935C36.5639 32.215 31.6274 32.5662 26.2025 34.3323C26.203 38.601 26.7221 43.1538 28.1489 48.3175C29.4973 48.0107 30.7362 47.5835 31.867 47.0267C31.704 46.7921 31.5423 46.5567 31.3818 46.3204C31.2467 46.1222 31.1142 45.9222 30.9844 45.7205C30.8777 45.5535 30.826 45.5166 30.7148 45.2383L32.608 44.4809C32.5723 44.3914 32.5737 44.3923 32.5955 44.4329C32.617 44.4734 32.6586 44.5539 32.7031 44.6236C32.823 44.8094 32.9452 44.9937 33.0697 45.1765C33.2346 45.42 33.4288 45.7012 33.6327 45.9947C34.5239 45.3794 35.337 44.6581 36.0542 43.8466C37.4043 42.3215 38.4999 40.3882 39.3249 38.0033L37.9915 37.7453L38.379 35.7434L39.9145 36.0407C40.2226 34.8548 40.4734 33.5734 40.6667 32.1936L40.6669 32.1935ZM42.7396 32.206C42.5402 33.7124 42.2735 35.1201 41.9384 36.4323L43.3119 36.698L42.9245 38.6997L41.3605 38.3972C40.4494 41.121 39.194 43.3762 37.581 45.198C36.7588 46.128 35.8262 46.9543 34.8038 47.6584C35.0929 48.0659 35.3824 48.4731 35.6724 48.8798L34.0151 50.0679C34.0151 50.0679 33.5704 49.4445 33.0475 48.7066C31.7239 49.3858 30.2789 49.8995 28.7198 50.2629C28.9639 51.0458 29.2222 51.8241 29.4946 52.5976C33.4906 51.5141 37.3439 49.4295 40.5886 46.5652C44.7368 42.9035 45.6453 37.5687 45.4826 32.2607C44.6303 32.2448 43.7165 32.2213 42.7397 32.2057L42.7396 32.206ZM24.186 35.0488C22.5046 35.6953 20.783 36.484 19.0301 37.4461C19.0799 38.1434 19.1404 38.8277 19.2109 39.4972C19.9714 46.7246 21.9491 52.3222 23.1992 54.3212C23.245 54.3461 23.2964 54.3752 23.3744 54.4043C23.5736 54.4785 23.8587 54.5604 24.1836 54.6298C24.8332 54.7684 25.6481 54.8586 26.3597 54.8393C27.0716 54.8201 27.6741 54.6497 27.8552 54.526C27.9459 54.4642 27.9334 54.4603 27.9362 54.4499C27.9392 54.4397 27.9627 54.3602 27.8768 54.127L27.8763 54.1256L27.8756 54.1239C25.2175 46.8523 24.2606 40.6892 24.1858 35.0488H24.186ZM17.0753 38.586C14.1243 40.4053 11.098 42.7347 8.04111 45.7127C8.77064 46.9294 9.60801 47.9387 10.4952 48.6652L10.5127 48.6793L10.5297 48.6943C13.4044 51.2699 16.793 52.7294 20.353 53.2378C20.0496 52.532 19.749 51.7354 19.458 50.8559C18.4699 50.7925 17.4547 50.6965 16.413 50.5693L16.66 48.5452C17.402 48.6358 18.1254 48.7091 18.8316 48.7668C18.1375 46.2154 17.5456 43.1577 17.1828 39.7103C17.1437 39.3399 17.1082 38.9644 17.0752 38.5857L17.0753 38.586Z" fill="url(#paint0_linear_2164_630)"/>
<defs>
<linearGradient id="paint0_linear_2164_630" x1="28.9163" y1="3.3623" x2="37.0331" y2="130.971" gradientUnits="userSpaceOnUse">
<stop stop-color="#FFF9B8"/>
<stop offset="1" stop-color="#BCAB4C"/>
</linearGradient>
</defs>
</svg>
