<svg width="30" height="28" viewBox="0 0 30 28" fill="none" xmlns="http://www.w3.org/2000/svg">
<path d="M12.6008 10.2386C6.08498 8.3767 0.5 11.1694 0.5 13.031V23.2702C0.5 24.5113 1.89624 26.9935 8.41205 26.9935C15.114 26.9935 16.3241 24.201 16.3241 22.3393C26.0047 23.4563 29.0454 20.6328 29.3557 19.0814V3.72275C29.0454 2.63678 26.9356 0.464844 20.9783 0.464844C15.0209 0.464844 12.9111 2.63678 12.6008 3.72275V10.2386Z" fill="url(#paint0_linear_2288_811)"/>
<path fill-rule="evenodd" clip-rule="evenodd" d="M12.1636 3.72289H12.0994V9.73498C10.9868 9.46185 9.73526 9.30848 8.41211 9.30848C4.0378 9.30848 0.446542 10.9848 0.0676699 13.1227H0V18.1841V22.8705C0 24.1676 0.834471 25.3125 2.45406 26.1034C4.05 26.8829 6.17936 27.3072 8.37327 27.3072C10.5672 27.3072 12.6965 26.8829 14.2925 26.1034C15.9121 25.3125 16.7465 24.1676 16.7465 22.8705V22.6291L16.7603 22.6313C17.4162 22.7359 18.3601 22.8395 19.5263 22.8395C21.784 22.8395 24.3286 22.7721 26.305 21.8629C27.1215 21.4873 27.976 21.032 28.634 20.5227C29.2595 20.0384 29.854 19.3937 29.854 18.6162V13.9621V9.30848V3.72289H29.7902C29.4199 1.63856 25.6155 0 20.9769 0C16.3383 0 12.5339 1.63856 12.1636 3.72289ZM13.0994 5.90214V10.025C14.6699 10.556 15.8608 11.3464 16.4263 12.2733C16.5859 12.2992 16.784 12.3289 17.016 12.3585C17.6919 12.445 18.6536 12.5318 19.7897 12.5318C22.064 12.5318 24.2207 12.1464 25.7852 11.4811C26.5963 11.1362 27.4013 10.7411 27.9961 10.324C28.2936 10.1153 28.5186 9.91476 28.6651 9.72883C28.8119 9.54247 28.854 9.40457 28.854 9.30848V5.90258C27.3897 7.21539 24.4121 8.11403 20.9769 8.11403C17.5414 8.11403 14.5635 7.2152 13.0994 5.90214ZM28.5703 11.1427C28.6677 11.0744 28.7627 11.0039 28.854 10.9313V13.9621C28.854 14.0674 28.8111 14.2089 28.6738 14.3925C28.5361 14.5766 28.3234 14.7755 28.0386 14.9824C27.4687 15.3962 26.6831 15.7899 25.8546 16.1329C24.2443 16.7996 22.0256 17.1854 19.6871 17.1854C18.5192 17.1854 17.5841 17.0986 16.9442 17.0126C16.8748 17.0032 16.8089 16.9939 16.7465 16.9847V13.9244C16.775 13.784 16.7896 13.6414 16.7896 13.4972C16.7896 13.4435 16.7875 13.3899 16.7835 13.3367L16.8891 13.3505C17.599 13.4413 18.6037 13.5318 19.7897 13.5318C22.1598 13.5318 24.4571 13.1326 26.1765 12.4014C27.0074 12.0481 27.889 11.6205 28.5703 11.1427ZM28.6262 15.7915C28.7041 15.7349 28.7803 15.6768 28.854 15.6173V18.6162C28.854 18.8846 28.6232 19.2663 28.0218 19.7319C27.4527 20.1725 26.6782 20.5905 25.8871 20.9544C24.1402 21.758 21.8158 21.8395 19.5263 21.8395C18.419 21.8395 17.5281 21.7411 16.9177 21.6438C16.858 21.6343 16.8009 21.6248 16.7465 21.6153V18.1875L16.7465 18.1841L16.7465 17.9949L16.811 18.0037C17.49 18.0949 18.4699 18.1854 19.6871 18.1854C22.1186 18.1854 24.4746 17.7866 26.2372 17.0568C27.0952 16.7016 27.9636 16.2726 28.6262 15.7915ZM15.7465 20.4224V22.3174C15.7181 22.416 15.7181 22.416 15.7182 22.416L15.7184 22.4161L15.719 22.4163L15.7206 22.4167L15.7253 22.4181L15.7408 22.4224L15.7465 22.4239V22.8705C15.7465 23.6616 15.2574 24.5193 13.8536 25.2049C12.4262 25.902 10.455 26.3072 8.37327 26.3072C6.2915 26.3072 4.32031 25.902 2.89289 25.2049C1.48912 24.5193 1 23.6616 1 22.8705V20.4224C1.37909 20.7944 1.86457 21.1291 2.45406 21.417C4.05 22.1964 6.17936 22.6208 8.37327 22.6208C10.5672 22.6208 12.6965 22.1964 14.2925 21.417C14.882 21.1291 15.3674 20.7944 15.7465 20.4224ZM28.8198 4.05701C28.8198 4.54898 28.3417 5.31537 26.8128 6.01685C25.3708 6.6784 23.3085 7.11403 20.9769 7.11403C18.6453 7.11403 16.583 6.6784 15.1411 6.01685C13.6121 5.31537 13.134 4.54898 13.134 4.05701C13.134 3.56504 13.6121 2.79865 15.1411 2.09718C16.583 1.43563 18.6453 1 20.9769 1C23.3085 1 25.3708 1.43563 26.8128 2.09718C28.3417 2.79865 28.8198 3.56504 28.8198 4.05701ZM15.7465 13.8011C15.6 14.332 15.0631 14.9775 13.8887 15.5647C12.5388 16.2396 10.6039 16.6859 8.41211 16.6859C6.22032 16.6859 4.28546 16.2396 2.93556 15.5647C1.52584 14.8598 1.03464 14.0711 1.03464 13.4972C1.03464 12.9234 1.52584 12.1346 2.93556 11.4298C4.28546 10.7548 6.22032 10.3085 8.41211 10.3085C10.6039 10.3085 12.5388 10.7548 13.8887 11.4298C15.0631 12.017 15.6 12.6624 15.7465 13.1933V13.8011ZM15.7465 15.5229C14.3186 16.8127 11.5693 17.6859 8.41211 17.6859C5.19666 17.6859 2.40432 16.7802 1 15.4511V18.1841C1 18.9751 1.48912 19.8329 2.89289 20.5185C4.32031 21.2156 6.2915 21.6208 8.37327 21.6208C10.455 21.6208 12.4262 21.2156 13.8536 20.5185C15.2563 19.8334 15.7457 18.9765 15.7465 18.186L15.7465 18.1841L15.7465 17.8185L15.7449 17.8181L15.7403 17.817L15.7388 17.8166L15.7382 17.8165L15.738 17.8165C15.7379 17.8164 15.7379 17.8164 15.7465 17.781V15.5229Z" fill="white"/>
<defs>
<linearGradient id="paint0_linear_2288_811" x1="14.9279" y1="0.464844" x2="16.467" y2="26.9137" gradientUnits="userSpaceOnUse">
<stop stop-color="#FFF9B8"/>
<stop offset="1" stop-color="#BCAB4C"/>
</linearGradient>
</defs>
</svg>
