<svg width="70" height="70" viewBox="0 0 70 70" fill="none" xmlns="http://www.w3.org/2000/svg">
<path opacity="0.6" fill-rule="evenodd" clip-rule="evenodd" d="M11.8142 0L11.997 0.0262782C16.0124 0.603473 26.2077 2.56242 34.9263 5.79448L35.0949 5.85697L35.185 6.01253C36.8201 8.83281 37.3763 11.2759 37.1342 13.3762C36.8914 15.4815 35.8538 17.1785 34.4233 18.5148C31.5866 21.1649 27.155 22.4491 23.9704 22.8375L23.7927 22.8592L23.6416 22.7632C15.0499 17.3032 4.71477 14.9819 0.920048 14.2182L0.332757 14.1L0.554059 13.5433C1.71772 10.6161 5.1956 4.19489 11.6582 0.0988718L11.8142 0ZM12.0382 1.04281C6.29356 4.74676 3.01321 10.374 1.71383 13.3599C5.91197 14.2338 15.7225 16.5934 24.0253 21.8226C27.0992 21.4204 31.1767 20.1793 33.7406 17.7841C35.0351 16.5748 35.9305 15.0849 36.1408 13.2616C36.3475 11.4687 35.8986 9.29207 34.4091 6.66949C25.9469 3.55549 16.1055 1.64214 12.0382 1.04281ZM38.6025 14.299L39.1173 15.2033C41.1665 18.8031 47.2161 27.3874 54.9496 32.8426L55.8065 33.447L54.7975 33.7323C54.1966 33.9022 53.1809 34.4131 52.2008 35.1208C51.2154 35.8323 50.3536 36.6804 49.9783 37.4826L49.5684 38.3588L49.0907 37.5176C47.9608 35.528 45.8371 32.1944 43.149 28.9629C40.4532 25.7221 37.2287 22.6319 33.9049 21.0712L32.9741 20.6341L33.8927 20.1719C34.9521 19.6389 37.1322 17.9977 38.2181 15.266L38.6025 14.299ZM38.7403 16.5313C37.7401 18.4793 36.2693 19.8276 35.1536 20.5826C38.3728 22.326 41.4056 25.3033 43.9178 28.3234C46.344 31.2401 48.3157 34.2346 49.5343 36.2904C50.0761 35.5485 50.8457 34.8658 51.6154 34.3101C52.2896 33.8233 53.0012 33.4073 53.6235 33.1177C46.6293 27.9385 41.114 20.4261 38.7403 16.5313ZM0 16.0253L0.579478 16.1036C2.04378 16.3015 4.9461 17.0605 8.09169 18.1056C11.2432 19.1528 14.6889 20.5037 17.238 21.9029L17.4042 21.9942L17.4681 22.1728C22.5505 36.3782 32.7125 46.6191 48.6483 53.4634L48.7854 53.5223L48.8678 53.6467C50.0532 55.4364 51.1949 58.5146 52.1058 61.5301C53.0213 64.5604 53.7237 67.5964 54.0133 69.3448L54.0978 69.8549L53.5851 69.9222C51.8428 70.1509 49.7129 69.8333 47.3463 69.094C44.9726 68.3525 42.325 67.1754 39.5328 65.6483C33.948 62.594 27.748 58.1194 21.9496 52.8575C16.1513 47.5958 10.7401 41.5336 6.74294 35.2975C2.75006 29.068 0.142469 22.6246 0.0126209 16.6099L0 16.0253ZM1.03396 17.1909C1.3127 22.7804 3.77884 28.8199 7.58484 34.7579C11.5237 40.9031 16.872 46.8994 22.6216 52.117C28.3712 57.3345 34.5075 61.7602 40.0126 64.771C42.7653 66.2764 45.3509 67.423 47.6445 68.1395C49.693 68.7794 51.4804 69.0672 52.9337 68.98C52.6098 67.2317 51.9668 64.5278 51.1486 61.8192C50.2603 58.8789 49.1845 55.9983 48.1143 54.3222C32.1093 47.4141 21.7871 37.0593 16.5913 22.6894C14.135 21.3638 10.8347 20.0708 7.77637 19.0546C5.04018 18.1455 2.53578 17.4705 1.03396 17.1909ZM48.9659 46.9094C53.753 54.4278 56.1448 63.8635 56.848 68.2088C58.0785 67.8023 60.2342 66.8741 62.4558 65.4194C65.0199 63.7405 67.6145 61.3975 68.9977 58.4082C68.9775 54.4315 67.8484 46.0427 64.0423 37.627C61.3108 36.1133 59.066 35.6088 57.2359 35.747C55.383 35.8869 53.9041 36.6892 52.7283 37.8679C50.3961 40.2056 49.2731 44.0126 48.9659 46.9094ZM57.1606 34.7498C59.2757 34.5901 61.7642 35.1948 64.6751 36.8351L64.817 36.915L64.8846 37.0632C68.8445 45.7469 69.998 54.4316 69.998 58.5165V58.6242L69.9536 58.7223C68.4717 62.0027 65.6735 64.5078 63.0036 66.256C60.333 68.0046 57.7324 69.0339 56.5658 69.3363L56.024 69.4767L55.9453 68.9226C55.3805 64.9444 52.9997 55.0302 48.0304 47.3027L47.9367 47.1569L47.9533 46.9844C48.2435 43.9673 49.4053 39.7829 52.0203 37.1616C53.3412 35.8376 55.0367 34.9102 57.1606 34.7498ZM26.6979 16.7474C29.2915 16.7474 31.4045 14.6302 31.4045 12.0053C31.4045 9.38048 29.2915 7.26321 26.6979 7.26321C24.1043 7.26321 21.9912 9.38048 21.9912 12.0053C21.9912 14.6302 24.1043 16.7474 26.6979 16.7474ZM26.6979 17.7474C29.8496 17.7474 32.4045 15.1766 32.4045 12.0053C32.4045 8.83404 29.8496 6.26321 26.6979 6.26321C23.5462 6.26321 20.9912 8.83404 20.9912 12.0053C20.9912 15.1766 23.5462 17.7474 26.6979 17.7474ZM29.1216 13.8443C28.7811 14.2012 28.485 14.4694 28.0778 14.6665C27.9175 14.7441 27.7286 14.816 27.5 14.8745L27.7783 13.9117C28.0924 13.7909 28.3795 13.6011 28.617 13.3522C29.0398 12.909 29.2696 12.3158 29.2572 11.7034C29.2448 11.0912 28.9912 10.5094 28.5525 10.0856C28.2726 9.81521 27.9315 9.62297 27.5628 9.5225L27.1625 8.8063C27.319 8.82653 27.4797 8.8575 27.6422 8.89908C28.2961 9.0663 28.8093 9.36083 29.0332 9.57705C29.6076 10.1319 29.9394 10.8937 29.9556 11.6943C29.9719 12.4948 29.6714 13.268 29.1216 13.8443ZM26.1293 16.025C26.5235 16.025 26.8738 16.0003 27.1876 15.9553C28.5695 15.7571 29.243 15.1636 29.841 14.5368C30.5747 13.7678 30.9747 12.737 30.9531 11.6712C30.9315 10.6054 30.4899 9.59188 29.7257 8.85363C29.1338 8.28191 27.8155 7.73098 26.5881 7.7784C26.2306 7.79221 25.8808 7.85679 25.5589 7.98641L26.0538 8.87196L26.9327 10.4447C27.2776 10.4376 27.6112 10.5687 27.8601 10.8091C28.1089 11.0495 28.2527 11.3795 28.2597 11.7265C28.2668 12.0736 28.1365 12.4092 27.8976 12.6596C27.6587 12.9101 27.3307 13.0547 26.9858 13.0618L26.4205 15.0175L26.1293 16.025ZM61.0686 43.465C60.7734 43.1196 60.4387 42.9009 60.0079 42.6623C59.3114 42.2765 58.4911 42.1849 57.7275 42.4077C56.9639 42.6305 56.3195 43.1494 55.9361 43.8502C55.7869 44.123 55.6369 44.6976 55.6456 45.3766C55.6478 45.547 55.6599 45.7127 55.6813 45.8715L56.2647 45.2977C56.2658 44.9137 56.3621 44.5324 56.5494 44.1899C56.8433 43.6528 57.3372 43.2551 57.9224 43.0843C58.5077 42.9136 59.1364 42.9837 59.6703 43.2794C59.9706 43.4458 60.227 43.6758 60.4242 43.9501L61.4171 43.9713C61.302 43.7651 61.1844 43.6004 61.0686 43.465ZM62.537 43.9952C62.6614 44.2886 62.7757 44.6227 62.8778 45.0059L61.8343 44.9835L59.8116 44.9403C59.7155 44.6069 59.4918 44.3256 59.1895 44.1582C58.8873 43.9908 58.5314 43.9511 58.2001 44.0477C57.8687 44.1444 57.5891 44.3695 57.4228 44.6736C57.2564 44.9777 57.2169 45.3359 57.313 45.6693L56.0317 46.9296L55.3087 47.6408C55.1013 47.3619 54.9489 47.0393 54.8432 46.696C54.4793 45.515 54.6669 44.0901 55.0628 43.3665C55.5737 42.4326 56.4323 41.7412 57.4498 41.4443C58.4674 41.1474 59.5605 41.2695 60.4886 41.7835C61.245 42.2024 61.9891 42.7035 62.537 43.9952ZM63.3634 45.3096C63.3634 47.9345 61.2503 50.0518 58.6567 50.0518C56.0631 50.0518 53.9501 47.9345 53.9501 45.3096C53.9501 42.6848 56.0631 40.5675 58.6567 40.5675C61.2503 40.5675 63.3634 42.6848 63.3634 45.3096ZM64.3634 45.3096C64.3634 48.4809 61.8084 51.0518 58.6567 51.0518C55.505 51.0518 52.9501 48.4809 52.9501 45.3096C52.9501 42.1384 55.505 39.5675 58.6567 39.5675C61.8084 39.5675 64.3634 42.1384 64.3634 45.3096Z" fill="url(#paint0_linear_2198_752)"/>
<defs>
<linearGradient id="paint0_linear_2198_752" x1="34.999" y1="0" x2="45.7226" y2="173.544" gradientUnits="userSpaceOnUse">
<stop stop-color="#FFF9B8"/>
<stop offset="1" stop-color="#BCAB4C"/>
</linearGradient>
</defs>
</svg>
