<svg width="46" height="50" viewBox="0 0 46 50" fill="none" xmlns="http://www.w3.org/2000/svg">
<path d="M44.1536 20.2961L39.8013 8.17921C40.7129 5.70765 41.6013 4.72399 42.0586 4.35424C42.3982 4.07892 42.6947 3.97461 42.9378 4.04229C43.3819 4.16776 43.8804 4.86943 44.2567 5.91744C45.467 9.2848 45.3715 15.2732 44.1536 20.2959V20.2961ZM9.3181 18.3732L42.9201 22.1158L38.2129 8.99959L10.6947 5.93409C10.9733 9.81224 10.4892 14.5185 9.31788 18.3731L9.3181 18.3732ZM8.91387 5.73644L4.07344 5.19718L8.05127 16.2748C8.88626 12.8309 9.19263 8.9317 8.91387 5.73644ZM5.95762 0.332042C5.55017 0.66505 4.80068 1.4778 3.99717 3.40066L38.2669 7.21886C38.8398 5.74772 39.4883 4.56532 40.1876 3.72818L6.74566 0.00333118C6.46927 -0.0278212 6.16397 0.165538 5.9574 0.332042H5.95762ZM36.1034 30.7687L36.1689 48.9608L43.2966 43.1998L43.2311 25.0079L36.1034 30.7687ZM34.3925 49.8224L0.0666014 45.9988L0 27.3171L34.327 31.1406L34.3925 49.8224ZM18.3397 33.682C18.5206 33.5861 18.6696 33.4393 18.7682 33.2598C18.8669 33.0803 18.9109 32.8759 18.8949 32.6717C18.8682 31.9878 18.3187 31.3728 17.667 31.2906H17.6536C16.994 31.2162 16.4823 31.7124 16.51 32.4008C16.5225 32.6238 16.5846 32.8412 16.6917 33.0371C16.7989 33.233 16.9485 33.4026 17.1295 33.5334L16.8964 36.2267L18.7838 36.4421L18.3397 33.682ZM41.8952 23.801L8.86725 20.1218V26.5177L34.9398 29.4221L41.8952 23.801ZM1.32236 25.6772L7.15967 26.3279V20.959L1.32236 25.6772Z" fill="url(#paint0_linear_2164_643)"/>
<defs>
<linearGradient id="paint0_linear_2164_643" x1="22.5586" y1="0" x2="30.981" y2="123.425" gradientUnits="userSpaceOnUse">
<stop stop-color="#FFF9B8"/>
<stop offset="1" stop-color="#BCAB4C"/>
</linearGradient>
</defs>
</svg>
