<svg width="74" height="66" viewBox="0 0 74 66" fill="none" xmlns="http://www.w3.org/2000/svg">
<path d="M61.8897 0.000156164L49.9463 18.9945L48.6572 13.8867L43.9356 27.7883L53.7255 23.1984L53.7598 27.7981L73.6083 19.8391L62.5438 19.5312L70.0097 8.79906L58.53 14.9319L61.8894 0L61.8897 0.000156164ZM30.1467 5.02953L25.1467 7.28047L27.7833 15.9767L0 28.4814L1.96312 32.837L29.7461 20.3273L34.497 28.057L42.2022 24.5898L38.8672 13.5987L30.1467 5.02953ZM28.1737 30.7617V33.9406H14.2822C16.7812 40.0042 22.2861 44.1641 28.1737 45.5469V50.6984H37.3241C35.4306 55.4684 32.0889 59.3991 28.1881 62.8225H24.2092V65.7422H68.6373V62.8227H64.3552C59.8655 59.4016 56.5341 55.4761 54.7262 50.6984H64.6728V46.1378C67.7584 45.0448 70.8447 43.0894 73.9306 40.4055C70.835 37.6675 67.8009 36.1477 64.6728 35.4152V30.762H28.1739L28.1737 30.7617Z" fill="url(#paint0_linear_2164_637)"/>
<defs>
<linearGradient id="paint0_linear_2164_637" x1="36.9653" y1="0" x2="45.9293" y2="163.129" gradientUnits="userSpaceOnUse">
<stop stop-color="#FFF9B8"/>
<stop offset="1" stop-color="#BCAB4C"/>
</linearGradient>
</defs>
</svg>
