<svg width="71" height="58" viewBox="0 0 71 58" fill="none" xmlns="http://www.w3.org/2000/svg">
<path d="M17.1824 0.000460236C14.5558 0.867715 12.5006 1.82001 9.96826 3.72275C9.63992 4.04371 9.31805 4.37154 9.00287 4.70605C9.03885 4.79292 9.09431 4.90022 9.17631 5.05141C9.32861 5.33262 9.5911 5.66893 9.92134 6.00156C9.41524 6.83335 8.9402 7.68454 8.49724 8.55328C7.94799 8.08665 7.45511 7.56737 7.05906 6.98455C5.91062 8.45051 4.88569 10.0136 3.99531 11.657C4.05452 11.9081 4.22871 12.1819 4.56195 12.5488C4.96009 12.9867 5.58205 13.4391 6.30474 13.825C6.00133 14.7639 5.7411 15.6982 5.52733 16.6309C4.41204 16.1121 3.39194 15.4385 2.5901 14.5828C1.6861 16.7357 1.0123 18.9824 0.58048 21.2838C0.780602 21.6574 1.13723 21.9996 1.67658 22.3632C2.4369 22.8759 3.5294 23.2958 4.71695 23.5385C4.7102 24.5266 4.75442 25.5066 4.83867 26.474C3.12871 26.2172 1.48006 25.6684 0.135413 24.7616C0.127918 24.7564 0.119523 24.7524 0.112028 24.7471C-0.0799798 27.0952 -0.0250492 29.4575 0.275873 31.7936C0.622153 32.3277 1.20168 32.7079 2.06529 33.012C3.17548 33.4028 4.68442 33.5253 6.22064 33.3669C6.52045 34.3066 6.86148 35.2288 7.24149 36.1298C5.14732 36.4519 3.00864 36.3788 1.15641 35.7269C1.1059 35.7091 1.05673 35.6882 1.00651 35.6693C1.59941 38.03 2.44625 40.3161 3.5315 42.4855C4.06411 42.9159 4.78321 43.1326 5.7381 43.2002C7.13221 43.299 8.90768 42.9346 10.6007 42.2266C11.1558 43.0315 11.7434 43.8125 12.3621 44.5674C10.178 45.5981 7.81098 46.2059 5.60693 46.064C7.09905 48.3079 8.85312 50.3568 10.8302 52.1654C11.4688 52.3874 12.2243 52.3903 13.1348 52.2084C14.5739 51.9209 16.2611 51.0719 17.7864 49.906C17.7876 49.9067 17.7903 49.9052 17.7912 49.906C18.5618 50.5158 19.3573 51.0919 20.1756 51.6328C18.3803 53.154 16.3343 54.3491 14.2498 54.89C16.0109 56.1102 17.8861 57.1482 19.8477 57.9885C20.5878 58.0534 21.3902 57.8411 22.2978 57.3889C23.4478 56.8156 24.6633 55.8153 25.7501 54.583C28.3038 55.6242 30.9566 56.3052 33.6295 56.5639L33.8963 53.705C31.7575 53.4978 29.6115 52.9728 27.5161 52.1796C28.5479 50.4745 29.2565 48.6226 29.4559 47.0471C29.6324 45.6481 29.4683 44.5671 28.8889 43.7565C27.6777 43.5139 26.5069 43.1517 25.3849 42.682C25.3591 43.6751 25.1292 44.6754 24.7523 45.6128C24.1909 47.0101 23.3252 48.3448 22.2744 49.5608C21.4687 49.0532 20.6856 48.509 19.9273 47.9299C20.9197 46.8275 21.7146 45.632 22.1618 44.5192C22.7323 43.0999 22.7874 41.9745 22.2555 41.0179C21.094 40.257 20.0065 39.3698 18.9999 38.3747C18.7341 39.0347 18.3722 39.6595 17.9457 40.2311C17.1249 41.3309 16.0611 42.3048 14.8632 43.1329C14.2456 42.4084 13.6562 41.6589 13.1019 40.8784C14.174 40.1579 15.095 39.3281 15.7207 38.4897C16.4759 37.4775 16.803 36.5848 16.6903 35.7123C15.9357 34.6927 15.2592 33.6151 14.6666 32.4889C14.3236 32.902 13.9388 33.2767 13.5188 33.6068C12.5057 34.4012 11.3005 35.0121 10.0101 35.4534C9.62108 34.58 9.267 33.6885 8.96075 32.7769C10.0741 32.4077 11.0789 31.9045 11.8134 31.3283C12.6673 30.6588 13.1329 30.0167 13.2423 29.2945C12.7828 28.0491 12.4118 26.7713 12.1321 25.4712C11.8522 25.6363 11.561 25.7806 11.2609 25.903C10.1441 26.3553 8.89989 26.5836 7.6212 26.6321C7.52004 25.6777 7.46835 24.7186 7.46635 23.7586C8.50924 23.7183 9.48467 23.5381 10.2306 23.236C10.9202 22.9566 11.3691 22.6527 11.6312 22.2766C11.4747 20.7568 11.434 19.2268 11.5093 17.7004C11.4118 17.7164 11.3159 17.7281 11.2188 17.7388C10.2258 17.8501 9.18666 17.7618 8.15981 17.5327C8.36518 16.6148 8.62002 15.6892 8.92342 14.7601C9.65346 14.9033 10.3532 14.9478 10.9142 14.885C11.306 14.8411 11.5935 14.769 11.8136 14.6692C12.0195 13.3173 12.3186 11.982 12.7085 10.6734C12.0816 10.5604 11.4667 10.3523 10.8722 10.0786C11.3065 9.22064 11.7738 8.38062 12.2729 7.56046C12.6348 7.70828 12.9798 7.81604 13.2753 7.86285C13.4412 7.88895 13.5786 7.90353 13.6923 7.90583C13.9841 7.19361 14.2953 6.49827 14.634 5.82396C15.5182 4.0124 16.4951 2.10167 17.1824 0.00076706V0.000460236ZM53.8154 0.000460236C54.5024 2.10121 55.4793 4.01209 56.3637 5.82381C56.7055 6.5048 57.021 7.19924 57.3096 7.90552C57.4224 7.90307 57.5585 7.88818 57.7219 7.86255C58.0187 7.81558 58.3659 7.70905 58.7292 7.56016C59.2284 8.38036 59.6956 9.22044 60.13 10.0784C59.5339 10.3526 58.9163 10.5604 58.2891 10.6734C58.6733 11.9612 58.9746 13.2982 59.1836 14.6689C59.4046 14.7699 59.6939 14.8408 60.088 14.885C60.6489 14.9479 61.3487 14.9034 62.0787 14.7602C62.3756 15.6729 62.6289 16.5998 62.8377 17.5377C61.8128 17.766 60.7747 17.8502 59.7834 17.7393C59.6848 17.7289 59.5865 17.7161 59.4885 17.7009C59.5654 19.227 59.5262 20.757 59.3713 22.2769C59.6336 22.653 60.0826 22.9569 60.7721 23.2363C61.5167 23.5379 62.4903 23.7183 63.5313 23.7591C63.5294 24.719 63.4779 25.6782 63.3769 26.6325C62.0997 26.5834 60.8573 26.355 59.7417 25.9034C59.4417 25.7805 59.1505 25.6362 58.8703 25.4715C58.5904 26.7699 58.2194 28.046 57.7601 29.2897C57.8673 30.0142 58.329 30.6577 59.1842 31.3285C59.9193 31.9045 60.9238 32.4075 62.0373 32.7769C61.7309 33.6886 61.377 34.58 60.988 35.4535C59.6991 35.0122 58.496 34.4002 57.484 33.607C57.0623 33.2771 56.6759 32.9024 56.3315 32.489C55.7304 33.6283 55.0543 34.7062 54.3078 35.7125C54.1939 36.5846 54.5222 37.478 55.2777 38.49C55.9025 39.3276 56.8237 40.1585 57.8961 40.8789C57.3419 41.6594 56.7523 42.4086 56.1347 43.1333C54.937 42.305 53.8732 41.3312 53.0524 40.2313C52.6269 39.661 52.2678 39.0374 52.003 38.3795C50.9972 39.3738 49.908 40.2577 48.7471 41.0178C48.2154 41.9745 48.2704 43.0999 48.8409 44.5193C49.2884 45.6322 50.0833 46.8275 51.0757 47.93C50.3159 48.5092 49.5313 49.0533 48.724 49.5608C47.6742 48.3448 46.8121 47.0101 46.2506 45.6128C45.8739 44.6756 45.6439 43.6752 45.618 42.6823C44.4854 43.1565 43.3103 43.5164 42.1095 43.7568C41.5289 44.5672 41.3659 45.6484 41.5428 47.0473C41.7417 48.6227 42.4542 50.4748 43.4866 52.1799C41.3919 52.9731 39.2454 53.4979 37.1064 53.7052L37.3687 56.564C40.043 56.3051 42.6972 55.6253 45.2528 54.583C46.3396 55.8153 47.5551 56.8156 48.7051 57.3889C49.6129 57.8413 50.4152 58.0536 51.1553 57.9885C53.1169 57.1481 54.992 56.1101 56.7531 54.8898C54.67 54.3495 52.6214 53.1564 50.8273 51.6373C51.6431 51.0994 52.4373 50.5178 53.2117 49.9058C54.7377 51.073 56.4281 51.9206 57.868 52.2083C58.7759 52.3897 59.5305 52.3902 60.1682 52.1699C62.1471 50.36 63.9027 48.3095 65.3961 46.0638C63.1918 46.2058 60.8201 45.5979 58.6362 44.5672C59.2538 43.8131 59.8453 43.0338 60.402 42.2264C62.0952 42.934 63.8705 43.2987 65.2649 43.1999C66.2195 43.1323 66.9388 42.9156 67.4711 42.4852C68.5563 40.3157 69.4032 38.0297 69.9961 35.669C69.9459 35.6879 69.8967 35.7089 69.8462 35.7266C67.9941 36.3785 65.8553 36.4516 63.7609 36.1295C64.1426 35.2251 64.4834 34.3031 64.7822 33.3666C66.3167 33.5242 67.8238 33.4019 68.9328 33.0115C69.797 32.7076 70.3794 32.3277 70.7269 31.7932C71.0262 29.4571 71.0797 27.0947 70.8864 24.7468C70.8799 24.7511 70.8741 24.7568 70.8676 24.7613C69.523 25.6681 67.874 26.2169 66.1642 26.4737C66.2486 25.5063 66.2925 24.5263 66.2859 23.5381C67.4732 23.2952 68.566 22.8754 69.326 22.3627C69.8646 21.9996 70.2173 21.656 70.4178 21.2834C69.9856 18.9821 69.3117 16.7354 68.4078 14.5825C67.6063 15.4374 66.589 16.1113 65.4754 16.6307C65.2571 15.6839 64.9976 14.7476 64.6977 13.8245C65.418 13.4388 66.0381 12.9858 66.4357 12.5485C66.7673 12.1838 66.9457 11.9115 67.0073 11.6613C66.117 10.0163 65.092 8.45166 63.9432 6.98424C63.5472 7.56691 63.0543 8.08634 62.5053 8.55297C62.0623 7.6842 61.5872 6.83291 61.0812 6.00094C61.4122 5.66847 61.6738 5.3317 61.826 5.0508C61.9066 4.90191 61.9639 4.79661 61.9993 4.71034C61.6827 4.37422 61.3595 4.0448 61.0297 3.72229C58.4973 1.81955 56.4421 0.867255 53.8155 0L53.8154 0.000460236ZM19.9131 9.35422L23.5249 29.2655H48.1236L51.5574 10.1552L42.8723 19.9022L36.1313 9.58938L29.3856 19.9023L19.9134 9.35438L19.9131 9.35422ZM24.0449 32.134L24.579 35.0838H47.0788L47.6084 32.1339H24.0452L24.0449 32.134Z" fill="url(#paint0_linear_3538_630)"/>
<defs>
<linearGradient id="paint0_linear_3538_630" x1="35.5" y1="0" x2="42.7684" y2="143.986" gradientUnits="userSpaceOnUse">
<stop stop-color="#FFF9B8"/>
<stop offset="1" stop-color="#BCAB4C"/>
</linearGradient>
</defs>
</svg>
