<svg width="48" height="48" viewBox="0 0 48 48" fill="none" xmlns="http://www.w3.org/2000/svg">
<path d="M24.0012 2.18555C21.4534 2.18555 18.5096 2.72461 16.5458 3.86995C14.6063 5.16127 12.4939 9.56583 12.4939 9.56583C12.1933 10.0694 11.9069 10.5814 11.6352 11.1011C8.22528 17.6286 5.86991 27.5789 5.78516 40.8841C10.1532 43.4016 14.9198 45.0588 19.1023 45.8137C17.0646 44.4152 15.2898 42.2207 13.9292 39.4745C17.3898 39.047 21.2928 38.5542 23.9899 38.5541C26.7838 38.5541 30.8764 39.0819 34.4262 39.5188C33.0683 42.2443 31.3018 44.4226 29.275 45.8135C33.4576 45.0586 37.8492 43.4016 42.2172 40.8841C42.1325 27.5789 39.7771 17.6285 36.3672 11.1011C36.0955 10.5813 35.8091 10.0694 35.5084 9.56592V9.56564C35.5084 9.56564 33.3962 5.16127 31.4565 3.86995C29.2515 2.74964 26.549 2.18555 24.0012 2.18555H24.0012ZM23.997 3.70617C26.8271 3.99586 29.39 4.09973 31.1508 6.01898C29.4202 8.06367 26.8407 10.6596 23.9986 10.6599C21.1578 10.6601 17.7706 7.75973 16.8483 6.02227C18.5096 4.18795 21.8339 3.72192 23.997 3.70598V3.70617ZM15.9922 7.49967C16.5013 8.6798 20.9161 12.1091 23.9961 12.1169C27.1034 12.1246 31.5012 8.54592 32.0938 7.49967C32.0938 7.49967 33.245 9.25092 33.8369 10.4113L34.2635 11.4337C36.1871 15.6663 37.3211 20.1293 37.3211 26.2556C37.3211 30.5353 36.5328 34.5191 35.1767 37.8547C32.1345 37.4434 28.2432 37.1619 24.0012 37.1619C19.9219 37.1619 16.1694 37.4225 13.1817 37.8084C11.8374 34.4821 11.0564 30.5154 11.0564 26.2556C11.0564 20.1293 11.8154 15.6663 13.7389 11.4337L14.1655 10.4113C14.7554 9.25514 15.9922 7.49967 15.9922 7.49967Z" fill="url(#paint0_linear_2164_597)"/>
<defs>
<linearGradient id="paint0_linear_2164_597" x1="24.0012" y1="2.18555" x2="31.9926" y2="110.178" gradientUnits="userSpaceOnUse">
<stop stop-color="#FFF9B8"/>
<stop offset="1" stop-color="#BCAB4C"/>
</linearGradient>
</defs>
</svg>
