<svg width="56" height="56" viewBox="0 0 56 56" fill="none" xmlns="http://www.w3.org/2000/svg">
<path d="M6.71563 2.77734C10.2714 6.38016 12.6667 10.5605 14.5808 14.7113C15.1167 13.3988 15.3792 12.2831 16.648 11.1784C21.7886 14.0769 23.2433 15.9144 23.6917 19.9722H30.998C31.1948 16.0347 31.8292 13.8144 34.9902 10.9148C36.7292 12.2722 37.1777 13.8581 38.0636 15.3675C38.9933 11.1128 42.1433 6.4775 46.4527 4.22328C40.7105 2.95891 34.5855 4.17625 29.6855 6.14172C30.7027 6.84063 32.1683 7.37 32.6277 8.27453C30.5495 9.34531 28.3073 12.9066 27.0277 15.8597C25.4855 13.1144 22.2698 10.0147 19.1527 8.46156C20.4105 7.195 21.6683 6.73453 22.9261 5.95797C19.3167 3.94875 12.8527 2.95344 6.71563 2.77734ZM7.68359 21.9409L3.17188 33.9722H15.073L19.5792 21.9409H7.68359ZM22.423 21.9409L26.9292 33.9722H52.8292L48.323 21.9409H22.423ZM20.0167 26.3816L16.4292 35.9409H7.98547V53.2222H20.0167V26.3816ZM21.9855 26.3816V53.2222H48.0167V35.9409H25.573L21.9855 26.3816Z" fill="url(#paint0_linear_2164_639)"/>
<defs>
<linearGradient id="paint0_linear_2164_639" x1="28.0005" y1="2.77734" x2="35.8509" y2="127.834" gradientUnits="userSpaceOnUse">
<stop stop-color="#FFF9B8"/>
<stop offset="1" stop-color="#BCAB4C"/>
</linearGradient>
</defs>
</svg>
