<svg width="51" height="51" viewBox="0 0 51 51" fill="none" xmlns="http://www.w3.org/2000/svg">
<path d="M8.16441 0C7.36805 0.792969 6.00867 2.17953 4.53148 3.91953C7.42355 4.29336 10.9285 5.17582 14.157 6.15797C16.2867 6.80594 18.2804 7.49582 19.8437 8.13019C20.6367 8.44738 21.3164 8.75324 21.8714 9.02512C22.4265 9.30832 22.823 9.52355 23.1855 9.88605L21.7582 11.3361C21.7468 11.3247 21.4183 11.0868 20.9425 10.8489C20.4781 10.6111 19.8324 10.3279 19.0847 10.022C17.5894 9.4216 15.641 8.74191 13.5679 8.10754C9.89762 6.99285 5.76398 6.02996 3.00559 5.81473C1.97019 7.18203 1.03449 8.60598 0.431836 9.87473C7.59348 11.4493 15.6296 14.4173 20.0816 18.8579L20.4668 19.2431L20.3535 19.7868C20.3535 19.7868 20.0136 21.5314 20.0136 23.6157C20.0136 25.7001 20.4441 28.0111 21.5429 29.1099C22.6418 30.22 24.964 30.6505 27.0484 30.6505C29.1328 30.6505 30.8773 30.3107 30.8773 30.3107L31.4211 30.1974L31.8062 30.5825C36.2468 35.0345 39.2148 43.0548 40.7894 50.2255C42.0582 49.6251 43.4742 48.6849 44.8449 47.654C44.6297 44.89 43.6781 40.7665 42.5566 37.1075C41.9222 35.0232 41.2425 33.0747 40.6421 31.5794C40.3363 30.8318 40.0531 30.1861 39.8152 29.7216C39.5773 29.2458 39.3394 28.9173 39.3281 28.906L40.7781 27.4786C41.1406 27.8411 41.3558 28.2376 41.639 28.7927C41.9109 29.3478 42.2168 30.0275 42.5339 30.8204C43.1683 32.3837 43.8593 34.3775 44.505 36.5071C45.4793 39.7243 46.3629 43.2361 46.7367 46.1361C48.4812 44.6521 49.8632 43.2927 50.6562 42.4997C49.2175 35.1704 47.6996 25.3489 43.5648 18.4614L43.3609 18.1216L43.4402 17.7364C43.4402 17.7364 43.78 15.9919 43.7914 13.9075C43.7914 12.9673 43.7007 11.9818 43.5082 11.0755C43.6894 12.3216 43.4855 13.7263 43.0097 15.1536C42.1488 17.7364 40.3589 20.5345 37.8441 23.0607C35.3179 25.5755 32.5199 27.3654 29.9371 28.2263C27.3543 29.0872 24.8168 29.0532 23.2082 27.4446C21.6109 25.8474 21.5656 23.2986 22.4379 20.7271C23.2875 18.1443 25.0773 15.3462 27.6035 12.82C30.1296 10.2939 32.9164 8.50402 35.5105 7.65441C36.9039 7.17977 38.2972 6.97812 39.5207 7.14352C38.6371 6.9566 37.6742 6.87277 36.7566 6.87277C34.6722 6.87277 32.9277 7.21941 32.9277 7.21941L32.5312 7.29644L32.2027 7.09367C25.3039 2.95324 15.4937 1.44094 8.16441 0ZM38.6711 9.1384C37.9461 9.12707 37.0964 9.27434 36.1449 9.59152C34.5363 10.1239 32.7125 11.1435 30.9339 12.5708C31.5117 12.2196 32.0894 11.9251 32.6558 11.6872C33.5507 11.3247 34.4004 11.1095 35.2046 11.0982C36.0203 11.0982 36.8472 11.3247 37.4363 11.9251C37.6289 12.1177 37.7761 12.3216 37.9007 12.5482C36.8812 12.1064 35.6918 12.3443 34.9101 13.1259C33.8453 14.1907 33.8453 15.9126 34.9101 16.9775C35.5105 17.5665 36.3375 17.8497 37.1757 17.7478C36.4054 19.2204 35.25 20.7611 33.7886 22.2111C31.9875 24.0236 30.0504 25.3603 28.2832 26.0966C27.4902 26.4251 26.7312 26.629 25.9949 26.663C26.8558 26.8329 27.966 26.731 29.2914 26.2892C31.489 25.5642 34.0718 23.9443 36.3941 21.6107C38.7277 19.2771 40.3476 16.7056 41.0726 14.5079C41.7976 12.3216 41.6164 10.6904 40.7894 9.87473C40.325 9.41027 39.6 9.14973 38.6711 9.1384ZM0.0126948 11.506C-0.0416802 12.0837 0.072734 12.9333 0.470351 14.0095C1.05828 15.6181 2.17637 17.6458 3.68187 19.8661C6.69176 24.3181 11.2343 29.597 16.1507 34.5021C21.0558 39.4185 26.3347 43.9611 30.7867 46.9743C33.007 48.481 35.0347 49.5911 36.6433 50.1802C37.7195 50.5767 38.5691 50.69 39.1468 50.6333C38.5691 47.9939 37.7761 45.2185 36.8019 42.5677C31.2171 39.2599 26.2781 35.5556 21.8601 31.3415C21.3277 31.0583 20.8179 30.7071 20.3761 30.2654C19.9396 29.8278 19.5762 29.3229 19.3 28.77C15.0859 24.3634 11.3929 19.4243 8.08512 13.8509C5.43887 12.8654 2.65668 12.0724 0.0126948 11.506ZM11.2683 15.1423C13.432 18.5747 15.7656 21.7353 18.2918 24.6579C18.2691 24.2048 18.2578 23.7517 18.2578 23.3212C18.2578 21.5427 18.4504 20.2853 18.5523 19.6736C16.7285 17.9743 14.1683 16.445 11.2683 15.1423ZM30.9793 32.1005C30.3675 32.2025 29.1101 32.395 27.3316 32.395C26.9011 32.395 26.448 32.3837 25.9836 32.3497C28.9175 34.8872 32.0781 37.2208 35.5105 39.3845C34.2078 36.4958 32.6785 33.9243 30.9793 32.1005Z" fill="url(#paint0_linear_2164_608)"/>
<defs>
<linearGradient id="paint0_linear_2164_608" x1="25.3281" y1="0" x2="33.0864" y2="125.573" gradientUnits="userSpaceOnUse">
<stop stop-color="#FFF9B8"/>
<stop offset="1" stop-color="#BCAB4C"/>
</linearGradient>
</defs>
</svg>
