<svg width="65" height="65" viewBox="0 0 65 65" fill="none" xmlns="http://www.w3.org/2000/svg">
<path d="M31.3288 2.36829V15.2185C32.3429 15.2523 33.3604 15.2524 34.3757 15.2185V2.36816L31.3288 2.36829ZM22.1685 16.3847V20.2965H43.5363V16.3847C36.4581 18.0008 29.1774 17.9848 22.1685 16.3847ZM3.08997 20.836L4.27609 25.6087L21.0576 26.6361L22.2518 26.7075L22.1686 27.9016C21.8393 32.7356 22.836 37.8894 25.4139 42.1762L26.3819 23.5814L3.08997 20.836ZM61.8929 20.836L39.3153 23.4982L40.2277 40.9978C42.317 36.9639 43.1141 32.3012 42.8144 27.9017L42.735 26.7077L43.9252 26.6363L60.7069 25.6088L61.8929 20.836ZM28.8059 22.669L27.4529 48.6468V54.2564L33.0865 62.7026L38.5492 54.4073L36.8989 22.669H34.0386V54.5262H31.6661V22.6689L28.8059 22.669ZM4.84713 28.0209C5.294 29.4471 5.86821 30.9442 6.54132 32.4562L19.8079 31.3692C19.7625 30.5581 19.7506 29.7454 19.7724 28.9332L4.84713 28.0209ZM60.1355 28.0209L45.2105 28.9332C45.2323 29.7398 45.2203 30.5542 45.1749 31.3692L58.4415 32.4562C59.1144 30.9442 59.6889 29.4471 60.1353 28.0208L60.1355 28.0209ZM20.0381 33.7338L7.63223 34.7495C8.3285 36.1263 9.08164 37.4735 9.88971 38.7878L20.5618 36.4671C20.3416 35.5654 20.167 34.6531 20.0381 33.7338ZM44.9446 33.7338C44.8172 34.653 44.6438 35.5653 44.4251 36.4671L55.093 38.7878C55.9012 37.4736 56.6544 36.1263 57.3505 34.7495L44.9446 33.7338ZM21.2246 38.7523L11.2664 40.9185C12.1162 42.1626 13.0018 43.337 13.9007 44.4056L22.1447 41.0614C21.7997 40.3076 21.4925 39.5369 21.2243 38.7524L21.2246 38.7523ZM43.7588 38.7523C43.4904 39.5368 43.1832 40.3074 42.8384 41.0613L51.0823 44.4056C51.9811 43.3373 52.8668 42.1629 53.7166 40.9186L43.7586 38.7524L43.7588 38.7523Z" fill="url(#paint0_linear_2164_613)"/>
<defs>
<linearGradient id="paint0_linear_2164_613" x1="32.4914" y1="2.36816" x2="41.9741" y2="151.93" gradientUnits="userSpaceOnUse">
<stop stop-color="#FFF9B8"/>
<stop offset="1" stop-color="#BCAB4C"/>
</linearGradient>
</defs>
</svg>
