<svg width="23" height="26" viewBox="0 0 23 26" fill="none" xmlns="http://www.w3.org/2000/svg">
    <path d="M3.59864 8.76814C4.12025 6.82146 5.52021 5.19559 7.49054 4.24821C9.46088 3.30082 11.8402 3.10952 14.105 3.71638C16.3699 4.32325 18.3348 5.67858 19.5675 7.48421C20.8001 9.28984 21.1996 11.3979 20.678 13.3445M3.59864 8.76814L1.81689 5.43945M3.59864 8.76814L7.46953 7.56264"
          stroke="white" stroke-linecap="round"/>
    <path d="M19.5296 17.169C19.0198 19.0719 17.6375 20.6575 15.6871 21.577C13.7366 22.4965 11.3776 22.6746 9.12901 22.0721C6.88047 21.4696 4.92656 20.1359 3.69714 18.3643C2.46771 16.5928 2.06347 14.5285 2.57334 12.6256M19.5296 17.169L21.292 20.6797M19.5296 17.169L15.9779 18.2619"
          stroke="white" stroke-linecap="round"/>
</svg>